<svg width="449" height="133" viewBox="0 0 449 133" fill="none" xmlns="http://www.w3.org/2000/svg">
<rect x="419.041" y="10.9315" width="5.46575" height="7.28767" fill="#264653"/>
<rect x="18.2192" y="118.425" width="5.46575" height="5.46575" fill="#264653"/>
<rect x="29.1507" width="5.46575" height="5.46575" fill="#264653"/>
<rect x="260.534" y="112.959" width="9.10959" height="5.46575" fill="#264653"/>
<path d="M442.726 49.1918H448.192V54.6575H442.726V49.1918Z" fill="#E76F51"/>
<rect x="112.959" y="123.89" width="5.46575" height="5.46575" fill="#E76F51"/>
<rect x="153.041" y="10.9315" width="5.46575" height="7.28767" fill="#E76F51"/>
<rect x="364.384" y="127.534" width="7.28767" height="5.46575" fill="#E76F51"/>
<rect x="422.685" y="105.671" width="5.46575" height="7.28767" fill="#E9C46A"/>
<rect y="54.6575" width="5.46575" height="7.28767" fill="#E9C46A"/>
<rect x="315.192" y="20.0411" width="5.46575" height="5.46575" fill="#E9C46A"/>
<path d="M61.56 59.28C61.816 60.304 61.944 61.584 61.944 63.12C61.944 64.592 61.816 65.872 61.56 66.96C61.816 67.984 61.944 69.264 61.944 70.8C61.944 72.272 61.816 73.552 61.56 74.64H58.68C58.936 75.664 59.064 76.944 59.064 78.48C59.064 79.952 58.936 81.232 58.68 82.32H53.88C54.136 83.344 54.264 84.624 54.264 86.16C54.264 87.632 54.136 88.912 53.88 90H57.72C57.976 91.024 58.104 92.304 58.104 93.84C58.104 95.312 57.976 96.592 57.72 97.68H61.56C61.816 98.704 61.944 99.984 61.944 101.52C61.944 102.992 61.816 104.272 61.56 105.36H53.88C53.624 104.272 53.496 102.992 53.496 101.52C53.496 99.984 53.624 98.704 53.88 97.68H50.04C49.784 96.592 49.656 95.312 49.656 93.84C49.656 92.304 49.784 91.024 50.04 90H38.52C38.264 88.912 38.136 87.632 38.136 86.16C38.136 84.624 38.264 83.344 38.52 82.32H33.72C33.464 81.232 33.336 79.952 33.336 78.48C33.336 76.944 33.464 75.664 33.72 74.64H30.84C30.584 73.552 30.456 72.272 30.456 70.8C30.456 69.264 30.584 67.984 30.84 66.96C30.584 65.872 30.456 64.592 30.456 63.12C30.456 61.584 30.584 60.304 30.84 59.28C30.584 58.192 30.456 56.912 30.456 55.44C30.456 53.904 30.584 52.624 30.84 51.6H33.72C33.464 50.512 33.336 49.232 33.336 47.76C33.336 46.224 33.464 44.944 33.72 43.92H38.52C38.264 42.832 38.136 41.552 38.136 40.08C38.136 38.544 38.264 37.264 38.52 36.24H53.88C54.136 37.264 54.264 38.544 54.264 40.08C54.264 41.552 54.136 42.832 53.88 43.92H58.68C58.936 44.944 59.064 46.224 59.064 47.76C59.064 49.232 58.936 50.512 58.68 51.6H61.56C61.816 52.624 61.944 53.904 61.944 55.44C61.944 56.912 61.816 58.192 61.56 59.28ZM53.88 74.64C53.624 73.552 53.496 72.272 53.496 70.8C53.496 69.264 53.624 67.984 53.88 66.96C53.624 65.872 53.496 64.592 53.496 63.12C53.496 61.584 53.624 60.304 53.88 59.28C53.624 58.192 53.496 56.912 53.496 55.44C53.496 53.904 53.624 52.624 53.88 51.6H51C50.744 50.512 50.616 49.232 50.616 47.76C50.616 46.224 50.744 44.944 51 43.92H41.4C41.656 44.944 41.784 46.224 41.784 47.76C41.784 49.232 41.656 50.512 41.4 51.6H38.52C38.776 52.624 38.904 53.904 38.904 55.44C38.904 56.912 38.776 58.192 38.52 59.28C38.776 60.304 38.904 61.584 38.904 63.12C38.904 64.592 38.776 65.872 38.52 66.96C38.776 67.984 38.904 69.264 38.904 70.8C38.904 72.272 38.776 73.552 38.52 74.64H41.4C41.656 75.664 41.784 76.944 41.784 78.48C41.784 79.952 41.656 81.232 41.4 82.32H51C50.744 81.232 50.616 79.952 50.616 78.48C50.616 76.944 50.744 75.664 51 74.64H53.88ZM80.2215 78.48C80.2215 79.952 80.0935 81.232 79.8375 82.32H89.4375C89.6935 83.344 89.8215 84.624 89.8215 86.16C89.8215 87.632 89.6935 88.912 89.4375 90H74.0775C73.8215 88.912 73.6935 87.632 73.6935 86.16C73.6935 84.624 73.8215 83.344 74.0775 82.32H69.2775C69.0215 81.232 68.8935 79.952 68.8935 78.48C68.8935 76.944 69.0215 75.664 69.2775 74.64C69.0215 73.552 68.8935 72.272 68.8935 70.8C68.8935 69.264 69.0215 67.984 69.2775 66.96C69.0215 65.872 68.8935 64.592 68.8935 63.12C68.8935 61.584 69.0215 60.304 69.2775 59.28C69.0215 58.192 68.8935 56.912 68.8935 55.44C68.8935 53.904 69.0215 52.624 69.2775 51.6H76.9575C77.2135 52.624 77.3415 53.904 77.3415 55.44C77.3415 56.912 77.2135 58.192 76.9575 59.28C77.2135 60.304 77.3415 61.584 77.3415 63.12C77.3415 64.592 77.2135 65.872 76.9575 66.96C77.2135 67.984 77.3415 69.264 77.3415 70.8C77.3415 72.272 77.2135 73.552 76.9575 74.64H79.8375C80.0935 75.664 80.2215 76.944 80.2215 78.48ZM99.9975 59.28C100.254 60.304 100.382 61.584 100.382 63.12C100.382 64.592 100.254 65.872 99.9975 66.96C100.254 67.984 100.382 69.264 100.382 70.8C100.382 72.272 100.254 73.552 99.9975 74.64C100.254 75.664 100.382 76.944 100.382 78.48C100.382 79.952 100.254 81.232 99.9975 82.32C100.254 83.344 100.382 84.624 100.382 86.16C100.382 87.632 100.254 88.912 99.9975 90H92.3175C92.0615 88.912 91.9335 87.632 91.9335 86.16C91.9335 84.624 92.0615 83.344 92.3175 82.32H89.4375C89.1815 81.232 89.0535 79.952 89.0535 78.48C89.0535 76.944 89.1815 75.664 89.4375 74.64H92.3175C92.0615 73.552 91.9335 72.272 91.9335 70.8C91.9335 69.264 92.0615 67.984 92.3175 66.96C92.0615 65.872 91.9335 64.592 91.9335 63.12C91.9335 61.584 92.0615 60.304 92.3175 59.28C92.0615 58.192 91.9335 56.912 91.9335 55.44C91.9335 53.904 92.0615 52.624 92.3175 51.6H99.9975C100.254 52.624 100.382 53.904 100.382 55.44C100.382 56.912 100.254 58.192 99.9975 59.28ZM138.819 63.12C138.819 64.592 138.691 65.872 138.435 66.96C138.691 67.984 138.819 69.264 138.819 70.8C138.819 72.272 138.691 73.552 138.435 74.64H118.275C118.531 75.664 118.659 76.944 118.659 78.48C118.659 79.952 118.531 81.232 118.275 82.32H134.595C134.851 83.344 134.979 84.624 134.979 86.16C134.979 87.632 134.851 88.912 134.595 90H115.395C115.139 88.912 115.011 87.632 115.011 86.16C115.011 84.624 115.139 83.344 115.395 82.32H110.595C110.339 81.232 110.211 79.952 110.211 78.48C110.211 76.944 110.339 75.664 110.595 74.64H107.715C107.459 73.552 107.331 72.272 107.331 70.8C107.331 69.264 107.459 67.984 107.715 66.96H110.595C110.339 65.872 110.211 64.592 110.211 63.12C110.211 61.584 110.339 60.304 110.595 59.28H115.395C115.139 58.192 115.011 56.912 115.011 55.44C115.011 53.904 115.139 52.624 115.395 51.6H134.595C134.851 52.624 134.979 53.904 134.979 55.44C134.979 56.912 134.851 58.192 134.595 59.28H138.435C138.691 60.304 138.819 61.584 138.819 63.12ZM130.755 66.96C130.499 65.872 130.371 64.592 130.371 63.12C130.371 61.584 130.499 60.304 130.755 59.28H118.275C118.531 60.304 118.659 61.584 118.659 63.12C118.659 64.592 118.531 65.872 118.275 66.96H130.755ZM175.337 78.48C175.337 79.952 175.209 81.232 174.953 82.32H171.113C171.369 83.344 171.497 84.624 171.497 86.16C171.497 87.632 171.369 88.912 171.113 90H149.993C149.737 88.912 149.609 87.632 149.609 86.16C149.609 84.624 149.737 83.344 149.993 82.32H167.273C167.017 81.232 166.889 79.952 166.889 78.48C166.889 76.944 167.017 75.664 167.273 74.64H151.913C151.657 73.552 151.529 72.272 151.529 70.8C151.529 69.264 151.657 67.984 151.913 66.96H148.073C147.817 65.872 147.689 64.592 147.689 63.12C147.689 61.584 147.817 60.304 148.073 59.28H151.913C151.657 58.192 151.529 56.912 151.529 55.44C151.529 53.904 151.657 52.624 151.913 51.6H173.033C173.289 52.624 173.417 53.904 173.417 55.44C173.417 56.912 173.289 58.192 173.033 59.28H155.753C156.009 60.304 156.137 61.584 156.137 63.12C156.137 64.592 156.009 65.872 155.753 66.96H171.113C171.369 67.984 171.497 69.264 171.497 70.8C171.497 72.272 171.369 73.552 171.113 74.64H174.953C175.209 75.664 175.337 76.944 175.337 78.48ZM211.47 82.32C211.726 83.344 211.854 84.624 211.854 86.16C211.854 87.632 211.726 88.912 211.47 90H196.11C195.854 88.912 195.726 87.632 195.726 86.16C195.726 84.624 195.854 83.344 196.11 82.32H192.27C192.014 81.232 191.886 79.952 191.886 78.48C191.886 76.944 192.014 75.664 192.27 74.64C192.014 73.552 191.886 72.272 191.886 70.8C191.886 69.264 192.014 67.984 192.27 66.96C192.014 65.872 191.886 64.592 191.886 63.12C191.886 61.584 192.014 60.304 192.27 59.28H184.59C184.334 58.192 184.206 56.912 184.206 55.44C184.206 53.904 184.334 52.624 184.59 51.6H192.27C192.014 50.512 191.886 49.232 191.886 47.76C191.886 46.224 192.014 44.944 192.27 43.92C192.014 42.832 191.886 41.552 191.886 40.08C191.886 38.544 192.014 37.264 192.27 36.24H199.95C200.206 37.264 200.334 38.544 200.334 40.08C200.334 41.552 200.206 42.832 199.95 43.92C200.206 44.944 200.334 46.224 200.334 47.76C200.334 49.232 200.206 50.512 199.95 51.6H211.47C211.726 52.624 211.854 53.904 211.854 55.44C211.854 56.912 211.726 58.192 211.47 59.28H199.95C200.206 60.304 200.334 61.584 200.334 63.12C200.334 64.592 200.206 65.872 199.95 66.96C200.206 67.984 200.334 69.264 200.334 70.8C200.334 72.272 200.206 73.552 199.95 74.64C200.206 75.664 200.334 76.944 200.334 78.48C200.334 79.952 200.206 81.232 199.95 82.32H211.47ZM292.185 43.92C292.441 44.944 292.569 46.224 292.569 47.76C292.569 49.232 292.441 50.512 292.185 51.6C292.441 52.624 292.569 53.904 292.569 55.44C292.569 56.912 292.441 58.192 292.185 59.28C292.441 60.304 292.569 61.584 292.569 63.12C292.569 64.592 292.441 65.872 292.185 66.96C292.441 67.984 292.569 69.264 292.569 70.8C292.569 72.272 292.441 73.552 292.185 74.64C292.441 75.664 292.569 76.944 292.569 78.48C292.569 79.952 292.441 81.232 292.185 82.32C292.441 83.344 292.569 84.624 292.569 86.16C292.569 87.632 292.441 88.912 292.185 90H284.505C284.249 88.912 284.121 87.632 284.121 86.16C284.121 84.624 284.249 83.344 284.505 82.32C284.249 81.232 284.121 79.952 284.121 78.48C284.121 76.944 284.249 75.664 284.505 74.64C284.249 73.552 284.121 72.272 284.121 70.8C284.121 69.264 284.249 67.984 284.505 66.96H269.145C269.401 67.984 269.529 69.264 269.529 70.8C269.529 72.272 269.401 73.552 269.145 74.64C269.401 75.664 269.529 76.944 269.529 78.48C269.529 79.952 269.401 81.232 269.145 82.32C269.401 83.344 269.529 84.624 269.529 86.16C269.529 87.632 269.401 88.912 269.145 90H261.465C261.209 88.912 261.081 87.632 261.081 86.16C261.081 84.624 261.209 83.344 261.465 82.32C261.209 81.232 261.081 79.952 261.081 78.48C261.081 76.944 261.209 75.664 261.465 74.64C261.209 73.552 261.081 72.272 261.081 70.8C261.081 69.264 261.209 67.984 261.465 66.96C261.209 65.872 261.081 64.592 261.081 63.12C261.081 61.584 261.209 60.304 261.465 59.28C261.209 58.192 261.081 56.912 261.081 55.44C261.081 53.904 261.209 52.624 261.465 51.6C261.209 50.512 261.081 49.232 261.081 47.76C261.081 46.224 261.209 44.944 261.465 43.92C261.209 42.832 261.081 41.552 261.081 40.08C261.081 38.544 261.209 37.264 261.465 36.24H269.145C269.401 37.264 269.529 38.544 269.529 40.08C269.529 41.552 269.401 42.832 269.145 43.92C269.401 44.944 269.529 46.224 269.529 47.76C269.529 49.232 269.401 50.512 269.145 51.6C269.401 52.624 269.529 53.904 269.529 55.44C269.529 56.912 269.401 58.192 269.145 59.28H284.505C284.249 58.192 284.121 56.912 284.121 55.44C284.121 53.904 284.249 52.624 284.505 51.6C284.249 50.512 284.121 49.232 284.121 47.76C284.121 46.224 284.249 44.944 284.505 43.92C284.249 42.832 284.121 41.552 284.121 40.08C284.121 38.544 284.249 37.264 284.505 36.24H292.185C292.441 37.264 292.569 38.544 292.569 40.08C292.569 41.552 292.441 42.832 292.185 43.92ZM310.847 78.48C310.847 79.952 310.719 81.232 310.463 82.32H320.062C320.319 83.344 320.447 84.624 320.447 86.16C320.447 87.632 320.319 88.912 320.062 90H304.703C304.447 88.912 304.319 87.632 304.319 86.16C304.319 84.624 304.447 83.344 304.703 82.32H299.903C299.647 81.232 299.519 79.952 299.519 78.48C299.519 76.944 299.647 75.664 299.903 74.64C299.647 73.552 299.519 72.272 299.519 70.8C299.519 69.264 299.647 67.984 299.903 66.96C299.647 65.872 299.519 64.592 299.519 63.12C299.519 61.584 299.647 60.304 299.903 59.28C299.647 58.192 299.519 56.912 299.519 55.44C299.519 53.904 299.647 52.624 299.903 51.6H307.583C307.839 52.624 307.967 53.904 307.967 55.44C307.967 56.912 307.839 58.192 307.583 59.28C307.839 60.304 307.967 61.584 307.967 63.12C307.967 64.592 307.839 65.872 307.583 66.96C307.839 67.984 307.967 69.264 307.967 70.8C307.967 72.272 307.839 73.552 307.583 74.64H310.463C310.719 75.664 310.847 76.944 310.847 78.48ZM330.623 59.28C330.879 60.304 331.007 61.584 331.007 63.12C331.007 64.592 330.879 65.872 330.623 66.96C330.879 67.984 331.007 69.264 331.007 70.8C331.007 72.272 330.879 73.552 330.623 74.64C330.879 75.664 331.007 76.944 331.007 78.48C331.007 79.952 330.879 81.232 330.623 82.32C330.879 83.344 331.007 84.624 331.007 86.16C331.007 87.632 330.879 88.912 330.623 90H322.943C322.687 88.912 322.559 87.632 322.559 86.16C322.559 84.624 322.687 83.344 322.943 82.32H320.062C319.807 81.232 319.679 79.952 319.679 78.48C319.679 76.944 319.807 75.664 320.062 74.64H322.943C322.687 73.552 322.559 72.272 322.559 70.8C322.559 69.264 322.687 67.984 322.943 66.96C322.687 65.872 322.559 64.592 322.559 63.12C322.559 61.584 322.687 60.304 322.943 59.28C322.687 58.192 322.559 56.912 322.559 55.44C322.559 53.904 322.687 52.624 322.943 51.6H330.623C330.879 52.624 331.007 53.904 331.007 55.44C331.007 56.912 330.879 58.192 330.623 59.28ZM345.444 55.44C345.444 56.912 345.316 58.192 345.06 59.28H348.9C349.156 60.304 349.284 61.584 349.284 63.12C349.284 64.592 349.156 65.872 348.9 66.96H346.02C346.276 67.984 346.404 69.264 346.404 70.8C346.404 72.272 346.276 73.552 346.02 74.64C346.276 75.664 346.404 76.944 346.404 78.48C346.404 79.952 346.276 81.232 346.02 82.32C346.276 83.344 346.404 84.624 346.404 86.16C346.404 87.632 346.276 88.912 346.02 90H338.34C338.084 88.912 337.956 87.632 337.956 86.16C337.956 84.624 338.084 83.344 338.34 82.32C338.084 81.232 337.956 79.952 337.956 78.48C337.956 76.944 338.084 75.664 338.34 74.64C338.084 73.552 337.956 72.272 337.956 70.8C337.956 69.264 338.084 67.984 338.34 66.96C338.084 65.872 337.956 64.592 337.956 63.12C337.956 61.584 338.084 60.304 338.34 59.28C338.084 58.192 337.956 56.912 337.956 55.44C337.956 53.904 338.084 52.624 338.34 51.6H345.06C345.316 52.624 345.444 53.904 345.444 55.44ZM369.06 66.96C369.316 67.984 369.444 69.264 369.444 70.8C369.444 72.272 369.316 73.552 369.06 74.64C369.316 75.664 369.444 76.944 369.444 78.48C369.444 79.952 369.316 81.232 369.06 82.32C369.316 83.344 369.444 84.624 369.444 86.16C369.444 87.632 369.316 88.912 369.06 90H361.38C361.124 88.912 360.996 87.632 360.996 86.16C360.996 84.624 361.124 83.344 361.38 82.32C361.124 81.232 360.996 79.952 360.996 78.48C360.996 76.944 361.124 75.664 361.38 74.64C361.124 73.552 360.996 72.272 360.996 70.8C360.996 69.264 361.124 67.984 361.38 66.96C361.124 65.872 360.996 64.592 360.996 63.12C360.996 61.584 361.124 60.304 361.38 59.28H348.9C348.644 58.192 348.516 56.912 348.516 55.44C348.516 53.904 348.644 52.624 348.9 51.6H364.26C364.516 52.624 364.644 53.904 364.644 55.44C364.644 56.912 364.516 58.192 364.26 59.28H369.06C369.316 60.304 369.444 61.584 369.444 63.12C369.444 64.592 369.316 65.872 369.06 66.96ZM403.658 82.32C403.914 83.344 404.042 84.624 404.042 86.16C404.042 87.632 403.914 88.912 403.658 90H388.298C388.042 88.912 387.914 87.632 387.914 86.16C387.914 84.624 388.042 83.344 388.298 82.32H384.458C384.202 81.232 384.074 79.952 384.074 78.48C384.074 76.944 384.202 75.664 384.458 74.64C384.202 73.552 384.074 72.272 384.074 70.8C384.074 69.264 384.202 67.984 384.458 66.96C384.202 65.872 384.074 64.592 384.074 63.12C384.074 61.584 384.202 60.304 384.458 59.28H376.778C376.522 58.192 376.394 56.912 376.394 55.44C376.394 53.904 376.522 52.624 376.778 51.6H384.458C384.202 50.512 384.074 49.232 384.074 47.76C384.074 46.224 384.202 44.944 384.458 43.92C384.202 42.832 384.074 41.552 384.074 40.08C384.074 38.544 384.202 37.264 384.458 36.24H392.138C392.394 37.264 392.522 38.544 392.522 40.08C392.522 41.552 392.394 42.832 392.138 43.92C392.394 44.944 392.522 46.224 392.522 47.76C392.522 49.232 392.394 50.512 392.138 51.6H403.658C403.914 52.624 404.042 53.904 404.042 55.44C404.042 56.912 403.914 58.192 403.658 59.28H392.138C392.394 60.304 392.522 61.584 392.522 63.12C392.522 64.592 392.394 65.872 392.138 66.96C392.394 67.984 392.522 69.264 392.522 70.8C392.522 72.272 392.394 73.552 392.138 74.64C392.394 75.664 392.522 76.944 392.522 78.48C392.522 79.952 392.394 81.232 392.138 82.32H403.658Z" fill="#E9C46A"/>
<path d="M61.56 59.28L47.9322 56.0734L47.1541 59.38L47.978 62.6755L61.56 59.28ZM61.56 66.96L47.9322 63.7534L47.1541 67.06L47.978 70.3555L61.56 66.96ZM61.56 74.64V88.64H72.6482L75.1878 77.8466L61.56 74.64ZM58.68 74.64V60.64H40.7491L45.098 78.0355L58.68 74.64ZM58.68 82.32V96.32H69.7682L72.3078 85.5266L58.68 82.32ZM53.88 82.32V68.32H35.9491L40.298 85.7155L53.88 82.32ZM53.88 90L40.2522 86.7934L36.2036 104H53.88V90ZM57.72 90L71.302 86.6045L68.6509 76H57.72V90ZM57.72 97.68L44.0922 94.4735L40.0436 111.68H57.72V97.68ZM61.56 97.68L75.142 94.2845L72.4909 83.68H61.56V97.68ZM61.56 105.36V119.36H72.6482L75.1878 108.567L61.56 105.36ZM53.88 105.36L40.2522 108.567L42.7918 119.36H53.88V105.36ZM53.88 97.68L67.462 101.075L71.8108 83.68H53.88V97.68ZM50.04 97.68L36.4122 100.887L38.9518 111.68H50.04V97.68ZM50.04 90L63.622 93.3955L67.9709 76H50.04V90ZM38.52 90L24.8922 93.2066L27.4318 104H38.52V90ZM38.52 82.32L52.102 85.7155L56.4509 68.32H38.52V82.32ZM33.72 82.32L20.0922 85.5266L22.6318 96.32H33.72V82.32ZM33.72 74.64L47.302 78.0355L51.6509 60.64H33.72V74.64ZM30.84 74.64L17.2122 77.8466L19.7518 88.64H30.84V74.64ZM30.84 66.96L44.422 70.3555L45.2459 67.06L44.4678 63.7534L30.84 66.96ZM30.84 59.28L44.422 62.6755L45.2459 59.38L44.4678 56.0734L30.84 59.28ZM30.84 51.6V37.6H19.9091L17.258 48.2045L30.84 51.6ZM33.72 51.6V65.6H51.3964L47.3478 48.3935L33.72 51.6ZM33.72 43.92V29.92H22.7891L20.138 40.5245L33.72 43.92ZM38.52 43.92V57.92H56.1964L52.1478 40.7134L38.52 43.92ZM38.52 36.24V22.24H27.5891L24.938 32.8445L38.52 36.24ZM53.88 36.24L67.462 32.8445L64.8109 22.24H53.88V36.24ZM53.88 43.92L40.2522 40.7134L36.2035 57.92H53.88V43.92ZM58.68 43.92L72.262 40.5245L69.6109 29.92H58.68V43.92ZM58.68 51.6L45.0522 48.3934L41.0036 65.6H58.68V51.6ZM61.56 51.6L75.142 48.2045L72.4909 37.6H61.56V51.6ZM53.88 74.64V88.64H71.5564L67.5078 71.4335L53.88 74.64ZM53.88 66.96L67.462 70.3555L68.2859 67.06L67.5078 63.7535L53.88 66.96ZM53.88 59.28L67.462 62.6755L68.2859 59.38L67.5078 56.0735L53.88 59.28ZM53.88 51.6L67.462 54.9955L71.8108 37.6H53.88V51.6ZM51 51.6L37.3722 54.8065L39.9118 65.6H51V51.6ZM51 43.92L64.582 47.3155L68.9309 29.92H51V43.92ZM41.4 43.92V29.92H23.4691L27.818 47.3155L41.4 43.92ZM41.4 51.6V65.6H52.4882L55.0278 54.8066L41.4 51.6ZM38.52 51.6V37.6H20.5891L24.938 54.9955L38.52 51.6ZM38.52 59.28L24.8922 56.0734L24.1141 59.38L24.938 62.6755L38.52 59.28ZM38.52 66.96L24.8922 63.7534L24.1141 67.06L24.938 70.3555L38.52 66.96ZM38.52 74.64L24.8922 71.4334L20.8436 88.64H38.52V74.64ZM41.4 74.64L54.982 71.2445L52.3309 60.64H41.4V74.64ZM41.4 82.32L27.7722 79.1134L23.7236 96.32H41.4V82.32ZM51 82.32V96.32H68.6764L64.6278 79.1135L51 82.32ZM51 74.64V60.64H40.0691L37.418 71.2445L51 74.64ZM47.978 62.6755C47.9105 62.4055 47.907 62.2959 47.9175 62.4011C47.9274 62.4997 47.944 62.7311 47.944 63.12H75.944C75.944 60.9083 75.7701 58.3967 75.142 55.8845L47.978 62.6755ZM47.944 63.12C47.944 63.4556 47.9292 63.6742 47.9175 63.7909C47.9056 63.9094 47.9006 63.8878 47.9322 63.7534L75.1878 70.1666C75.7548 67.7571 75.944 65.3529 75.944 63.12H47.944ZM47.978 70.3555C47.9105 70.0855 47.907 69.9759 47.9175 70.0811C47.9274 70.1797 47.944 70.4111 47.944 70.8H75.944C75.944 68.5883 75.7701 66.0767 75.142 63.5645L47.978 70.3555ZM47.944 70.8C47.944 71.1356 47.9292 71.3542 47.9175 71.4709C47.9056 71.5894 47.9006 71.5678 47.9322 71.4334L75.1878 77.8466C75.7548 75.4371 75.944 73.0329 75.944 70.8H47.944ZM61.56 60.64H58.68V88.64H61.56V60.64ZM45.098 78.0355C45.0305 77.7655 45.027 77.6559 45.0375 77.7611C45.0474 77.8597 45.064 78.0911 45.064 78.48H73.064C73.064 76.2683 72.8901 73.7567 72.262 71.2445L45.098 78.0355ZM45.064 78.48C45.064 78.8156 45.0492 79.0342 45.0375 79.1509C45.0256 79.2694 45.0206 79.2478 45.0522 79.1134L72.3078 85.5266C72.8748 83.1171 73.064 80.7129 73.064 78.48H45.064ZM58.68 68.32H53.88V96.32H58.68V68.32ZM40.298 85.7155C40.2305 85.4455 40.227 85.3359 40.2375 85.4411C40.2473 85.5397 40.264 85.7711 40.264 86.16H68.264C68.264 83.9483 68.0901 81.4367 67.462 78.9245L40.298 85.7155ZM40.264 86.16C40.264 86.4956 40.2492 86.7142 40.2375 86.8309C40.2256 86.9494 40.2206 86.9278 40.2522 86.7934L67.5078 93.2066C68.0748 90.7971 68.264 88.3929 68.264 86.16H40.264ZM53.88 104H57.72V76H53.88V104ZM44.138 93.3955C44.0705 93.1255 44.067 93.0159 44.0775 93.121C44.0873 93.2197 44.104 93.4511 44.104 93.84H72.104C72.104 91.6283 71.9301 89.1168 71.302 86.6045L44.138 93.3955ZM44.104 93.84C44.104 94.1756 44.0892 94.3942 44.0775 94.511C44.0656 94.6294 44.0605 94.6078 44.0922 94.4735L71.3478 100.887C71.9148 98.4771 72.104 96.0729 72.104 93.84H44.104ZM57.72 111.68H61.56V83.68H57.72V111.68ZM47.978 101.076C47.9105 100.805 47.907 100.696 47.9175 100.801C47.9274 100.9 47.944 101.131 47.944 101.52H75.944C75.944 99.3083 75.7701 96.7967 75.142 94.2845L47.978 101.076ZM47.944 101.52C47.944 101.856 47.9292 102.074 47.9175 102.191C47.9056 102.309 47.9006 102.288 47.9322 102.153L75.1878 108.567C75.7548 106.157 75.944 103.753 75.944 101.52H47.944ZM61.56 91.36H53.88V119.36H61.56V91.36ZM67.5078 102.153C67.5395 102.288 67.5344 102.309 67.5225 102.191C67.5108 102.074 67.496 101.856 67.496 101.52H39.496C39.496 103.753 39.6852 106.157 40.2522 108.567L67.5078 102.153ZM67.496 101.52C67.496 101.131 67.5127 100.9 67.5225 100.801C67.533 100.696 67.5295 100.805 67.462 101.075L40.298 94.2845C39.6699 96.7968 39.496 99.3083 39.496 101.52H67.496ZM53.88 83.68H50.04V111.68H53.88V83.68ZM63.6678 94.4735C63.6995 94.6078 63.6944 94.6294 63.6825 94.511C63.6708 94.3942 63.656 94.1756 63.656 93.84H35.656C35.656 96.0729 35.8452 98.4771 36.4122 100.887L63.6678 94.4735ZM63.656 93.84C63.656 93.4511 63.6727 93.2197 63.6825 93.121C63.693 93.0159 63.6895 93.1255 63.622 93.3955L36.458 86.6045C35.8299 89.1168 35.656 91.6283 35.656 93.84H63.656ZM50.04 76H38.52V104H50.04V76ZM52.1478 86.7934C52.1794 86.9278 52.1744 86.9494 52.1625 86.8309C52.1508 86.7142 52.136 86.4956 52.136 86.16H24.136C24.136 88.3929 24.3252 90.7971 24.8922 93.2066L52.1478 86.7934ZM52.136 86.16C52.136 85.7711 52.1527 85.5397 52.1625 85.4411C52.173 85.3359 52.1695 85.4455 52.102 85.7155L24.938 78.9245C24.3099 81.4367 24.136 83.9483 24.136 86.16H52.136ZM38.52 68.32H33.72V96.32H38.52V68.32ZM47.3478 79.1134C47.3794 79.2478 47.3744 79.2694 47.3625 79.1509C47.3508 79.0342 47.336 78.8156 47.336 78.48H19.336C19.336 80.7129 19.5252 83.1171 20.0922 85.5266L47.3478 79.1134ZM47.336 78.48C47.336 78.0911 47.3527 77.8597 47.3625 77.7611C47.373 77.6559 47.3695 77.7655 47.302 78.0355L20.138 71.2445C19.5099 73.7567 19.336 76.2683 19.336 78.48H47.336ZM33.72 60.64H30.84V88.64H33.72V60.64ZM44.4678 71.4334C44.4994 71.5678 44.4944 71.5894 44.4825 71.4709C44.4708 71.3542 44.456 71.1356 44.456 70.8H16.456C16.456 73.0329 16.6452 75.4371 17.2122 77.8466L44.4678 71.4334ZM44.456 70.8C44.456 70.4111 44.4727 70.1797 44.4825 70.0811C44.493 69.9759 44.4895 70.0855 44.422 70.3555L17.258 63.5645C16.6299 66.0767 16.456 68.5883 16.456 70.8H44.456ZM44.4678 63.7534C44.4994 63.8878 44.4944 63.9094 44.4825 63.7909C44.4708 63.6742 44.456 63.4556 44.456 63.12H16.456C16.456 65.3529 16.6452 67.7571 17.2122 70.1666L44.4678 63.7534ZM44.456 63.12C44.456 62.7311 44.4727 62.4997 44.4825 62.4011C44.493 62.2959 44.4895 62.4055 44.422 62.6755L17.258 55.8845C16.6299 58.3967 16.456 60.9083 16.456 63.12H44.456ZM44.4678 56.0734C44.4994 56.2078 44.4944 56.2294 44.4825 56.1109C44.4708 55.9942 44.456 55.7756 44.456 55.44H16.456C16.456 57.6729 16.6452 60.0771 17.2122 62.4866L44.4678 56.0734ZM44.456 55.44C44.456 55.0511 44.4727 54.8197 44.4825 54.7211C44.493 54.6159 44.4895 54.7255 44.422 54.9955L17.258 48.2045C16.6299 50.7167 16.456 53.2283 16.456 55.44H44.456ZM30.84 65.6H33.72V37.6H30.84V65.6ZM47.3478 48.3935C47.3794 48.5278 47.3744 48.5494 47.3625 48.4309C47.3508 48.3142 47.336 48.0956 47.336 47.76H19.336C19.336 49.9929 19.5252 52.3971 20.0922 54.8065L47.3478 48.3935ZM47.336 47.76C47.336 47.3711 47.3527 47.1397 47.3625 47.0411C47.373 46.9359 47.3695 47.0455 47.302 47.3155L20.138 40.5245C19.5099 43.0367 19.336 45.5483 19.336 47.76H47.336ZM33.72 57.92H38.52V29.92H33.72V57.92ZM52.1478 40.7134C52.1794 40.8478 52.1744 40.8694 52.1625 40.7509C52.1508 40.6342 52.136 40.4156 52.136 40.08H24.136C24.136 42.3129 24.3252 44.7171 24.8922 47.1266L52.1478 40.7134ZM52.136 40.08C52.136 39.6911 52.1527 39.4597 52.1625 39.3611C52.173 39.2559 52.1695 39.3655 52.102 39.6355L24.938 32.8445C24.3099 35.3567 24.136 37.8683 24.136 40.08H52.136ZM38.52 50.24H53.88V22.24H38.52V50.24ZM40.298 39.6355C40.2305 39.3655 40.227 39.2559 40.2375 39.3611C40.2473 39.4597 40.264 39.6911 40.264 40.08H68.264C68.264 37.8683 68.0901 35.3567 67.462 32.8445L40.298 39.6355ZM40.264 40.08C40.264 40.4156 40.2492 40.6342 40.2375 40.7509C40.2256 40.8694 40.2206 40.8478 40.2522 40.7134L67.5078 47.1266C68.0748 44.7171 68.264 42.3129 68.264 40.08H40.264ZM53.88 57.92H58.68V29.92H53.88V57.92ZM45.098 47.3155C45.0305 47.0455 45.027 46.9359 45.0375 47.0411C45.0474 47.1397 45.064 47.3711 45.064 47.76H73.064C73.064 45.5483 72.8901 43.0367 72.262 40.5245L45.098 47.3155ZM45.064 47.76C45.064 48.0956 45.0492 48.3142 45.0375 48.4309C45.0256 48.5494 45.0206 48.5278 45.0522 48.3934L72.3078 54.8066C72.8748 52.3971 73.064 49.9929 73.064 47.76H45.064ZM58.68 65.6H61.56V37.6H58.68V65.6ZM47.978 54.9955C47.9105 54.7255 47.907 54.6159 47.9175 54.7211C47.9274 54.8197 47.944 55.0511 47.944 55.44H75.944C75.944 53.2283 75.7701 50.7167 75.142 48.2045L47.978 54.9955ZM47.944 55.44C47.944 55.7756 47.9292 55.9942 47.9175 56.1109C47.9056 56.2294 47.9006 56.2078 47.9322 56.0734L75.1878 62.4866C75.7548 60.0771 75.944 57.6729 75.944 55.44H47.944ZM67.5078 71.4335C67.5395 71.5678 67.5344 71.5894 67.5225 71.471C67.5108 71.3542 67.496 71.1356 67.496 70.8H39.496C39.496 73.0329 39.6852 75.4371 40.2522 77.8465L67.5078 71.4335ZM67.496 70.8C67.496 70.4111 67.5127 70.1797 67.5225 70.081C67.533 69.9759 67.5295 70.0855 67.462 70.3555L40.298 63.5645C39.6699 66.0768 39.496 68.5883 39.496 70.8H67.496ZM67.5078 63.7535C67.5395 63.8878 67.5344 63.9094 67.5225 63.791C67.5108 63.6742 67.496 63.4556 67.496 63.12H39.496C39.496 65.3529 39.6852 67.7571 40.2522 70.1665L67.5078 63.7535ZM67.496 63.12C67.496 62.7311 67.5127 62.4997 67.5225 62.401C67.533 62.2959 67.5295 62.4055 67.462 62.6755L40.298 55.8845C39.6699 58.3968 39.496 60.9083 39.496 63.12H67.496ZM67.5078 56.0735C67.5395 56.2078 67.5344 56.2294 67.5225 56.111C67.5108 55.9942 67.496 55.7756 67.496 55.44H39.496C39.496 57.6729 39.6852 60.0771 40.2522 62.4865L67.5078 56.0735ZM67.496 55.44C67.496 55.0511 67.5127 54.8197 67.5225 54.721C67.533 54.6159 67.5295 54.7255 67.462 54.9955L40.298 48.2045C39.6699 50.7168 39.496 53.2283 39.496 55.44H67.496ZM53.88 37.6H51V65.6H53.88V37.6ZM64.6278 48.3935C64.6595 48.5278 64.6544 48.5494 64.6425 48.4309C64.6308 48.3142 64.616 48.0956 64.616 47.76H36.616C36.616 49.9929 36.8052 52.3971 37.3722 54.8065L64.6278 48.3935ZM64.616 47.76C64.616 47.3711 64.6327 47.1397 64.6425 47.041C64.653 46.9359 64.6495 47.0455 64.582 47.3155L37.418 40.5245C36.7899 43.0367 36.616 45.5483 36.616 47.76H64.616ZM51 29.92H41.4V57.92H51V29.92ZM27.818 47.3155C27.7505 47.0455 27.747 46.9359 27.7575 47.0411C27.7673 47.1397 27.784 47.3711 27.784 47.76H55.784C55.784 45.5483 55.6101 43.0367 54.982 40.5245L27.818 47.3155ZM27.784 47.76C27.784 48.0956 27.7692 48.3142 27.7575 48.4309C27.7456 48.5494 27.7406 48.5278 27.7722 48.3934L55.0278 54.8066C55.5948 52.3971 55.784 49.9929 55.784 47.76H27.784ZM41.4 37.6H38.52V65.6H41.4V37.6ZM24.938 54.9955C24.8705 54.7255 24.867 54.6159 24.8775 54.7211C24.8873 54.8197 24.904 55.0511 24.904 55.44H52.904C52.904 53.2283 52.7301 50.7167 52.102 48.2045L24.938 54.9955ZM24.904 55.44C24.904 55.7756 24.8892 55.9942 24.8775 56.1109C24.8656 56.2294 24.8606 56.2078 24.8922 56.0734L52.1478 62.4866C52.7148 60.0771 52.904 57.6729 52.904 55.44H24.904ZM24.938 62.6755C24.8705 62.4055 24.867 62.2959 24.8775 62.4011C24.8873 62.4997 24.904 62.7311 24.904 63.12H52.904C52.904 60.9083 52.7301 58.3967 52.102 55.8845L24.938 62.6755ZM24.904 63.12C24.904 63.4556 24.8892 63.6742 24.8775 63.7909C24.8656 63.9094 24.8606 63.8878 24.8922 63.7534L52.1478 70.1666C52.7148 67.7571 52.904 65.3529 52.904 63.12H24.904ZM24.938 70.3555C24.8705 70.0855 24.867 69.9759 24.8775 70.0811C24.8873 70.1797 24.904 70.4111 24.904 70.8H52.904C52.904 68.5883 52.7301 66.0767 52.102 63.5645L24.938 70.3555ZM24.904 70.8C24.904 71.1356 24.8892 71.3542 24.8775 71.4709C24.8656 71.5894 24.8606 71.5678 24.8922 71.4334L52.1478 77.8466C52.7148 75.4371 52.904 73.0329 52.904 70.8H24.904ZM38.52 88.64H41.4V60.64H38.52V88.64ZM27.818 78.0355C27.7505 77.7655 27.747 77.6559 27.7575 77.7611C27.7673 77.8597 27.784 78.0911 27.784 78.48H55.784C55.784 76.2683 55.6101 73.7567 54.982 71.2445L27.818 78.0355ZM27.784 78.48C27.784 78.8156 27.7692 79.0342 27.7575 79.1509C27.7456 79.2694 27.7406 79.2478 27.7722 79.1134L55.0278 85.5266C55.5948 83.1171 55.784 80.7129 55.784 78.48H27.784ZM41.4 96.32H51V68.32H41.4V96.32ZM64.6278 79.1135C64.6595 79.2478 64.6544 79.2694 64.6425 79.1509C64.6308 79.0342 64.616 78.8156 64.616 78.48H36.616C36.616 80.7129 36.8052 83.1171 37.3722 85.5265L64.6278 79.1135ZM64.616 78.48C64.616 78.0911 64.6327 77.8597 64.6425 77.761C64.653 77.6559 64.6495 77.7655 64.582 78.0355L37.418 71.2445C36.7899 73.7568 36.616 76.2683 36.616 78.48H64.616ZM51 88.64H53.88V60.64H51V88.64ZM79.8375 82.32L66.2097 79.1134L62.1611 96.32H79.8375V82.32ZM89.4375 82.32L103.019 78.9245L100.368 68.32H89.4375V82.32ZM89.4375 90V104H100.526L103.065 93.2066L89.4375 90ZM74.0775 90L60.4497 93.2066L62.9893 104H74.0775V90ZM74.0775 82.32L87.6595 85.7155L92.0084 68.32H74.0775V82.32ZM69.2775 82.32L55.6497 85.5266L58.1893 96.32H69.2775V82.32ZM69.2775 74.64L82.8595 78.0355L83.6834 74.74L82.9053 71.4334L69.2775 74.64ZM69.2775 66.96L82.8595 70.3555L83.6834 67.06L82.9053 63.7534L69.2775 66.96ZM69.2775 59.28L82.8595 62.6755L83.6834 59.38L82.9053 56.0734L69.2775 59.28ZM69.2775 51.6V37.6H58.3466L55.6955 48.2045L69.2775 51.6ZM76.9575 51.6L90.5395 48.2045L87.8884 37.6H76.9575V51.6ZM76.9575 59.28L63.3297 56.0734L62.5516 59.38L63.3755 62.6755L76.9575 59.28ZM76.9575 66.96L63.3297 63.7534L62.5516 67.06L63.3755 70.3555L76.9575 66.96ZM76.9575 74.64L63.3297 71.4334L59.2811 88.64H76.9575V74.64ZM79.8375 74.64L93.4195 71.2445L90.7684 60.64H79.8375V74.64ZM99.9975 59.28L86.3697 56.0734L85.5916 59.38L86.4155 62.6755L99.9975 59.28ZM99.9975 66.96L86.3697 63.7534L85.5916 67.06L86.4155 70.3555L99.9975 66.96ZM99.9975 74.64L86.3697 71.4334L85.5916 74.74L86.4155 78.0355L99.9975 74.64ZM99.9975 82.32L86.3697 79.1134L85.5916 82.42L86.4155 85.7155L99.9975 82.32ZM99.9975 90V104H111.086L113.625 93.2066L99.9975 90ZM92.3175 90L78.6897 93.2065L81.2293 104H92.3175V90ZM92.3175 82.32L105.899 85.7155L110.248 68.32H92.3175V82.32ZM89.4375 82.32L75.8097 85.5265L78.3493 96.32H89.4375V82.32ZM89.4375 74.64V60.64H78.5066L75.8555 71.2445L89.4375 74.64ZM92.3175 74.64V88.64H109.994L105.945 71.4335L92.3175 74.64ZM92.3175 66.96L105.899 70.3555L106.723 67.06L105.945 63.7535L92.3175 66.96ZM92.3175 59.28L105.899 62.6755L106.723 59.38L105.945 56.0735L92.3175 59.28ZM92.3175 51.6V37.6H81.3866L78.7355 48.2045L92.3175 51.6ZM99.9975 51.6L113.579 48.2045L110.928 37.6H99.9975V51.6ZM66.2215 78.48C66.2215 78.8156 66.2067 79.0342 66.195 79.1509C66.1831 79.2694 66.1781 79.2478 66.2097 79.1134L93.4653 85.5266C94.0323 83.1171 94.2215 80.7129 94.2215 78.48H66.2215ZM79.8375 96.32H89.4375V68.32H79.8375V96.32ZM75.8555 85.7155C75.788 85.4455 75.7845 85.3359 75.795 85.4411C75.8048 85.5397 75.8215 85.7711 75.8215 86.16H103.822C103.822 83.9483 103.648 81.4367 103.019 78.9245L75.8555 85.7155ZM75.8215 86.16C75.8215 86.4956 75.8067 86.7142 75.795 86.8309C75.7831 86.9494 75.7781 86.9278 75.8097 86.7934L103.065 93.2066C103.632 90.7971 103.822 88.3929 103.822 86.16H75.8215ZM89.4375 76H74.0775V104H89.4375V76ZM87.7053 86.7934C87.7369 86.9278 87.7319 86.9494 87.72 86.8309C87.7083 86.7142 87.6935 86.4956 87.6935 86.16H59.6935C59.6935 88.3929 59.8827 90.7971 60.4497 93.2066L87.7053 86.7934ZM87.6935 86.16C87.6935 85.7711 87.7102 85.5397 87.72 85.4411C87.7305 85.3359 87.727 85.4455 87.6595 85.7155L60.4955 78.9245C59.8674 81.4367 59.6935 83.9483 59.6935 86.16H87.6935ZM74.0775 68.32H69.2775V96.32H74.0775V68.32ZM82.9053 79.1134C82.9369 79.2478 82.9319 79.2694 82.92 79.1509C82.9083 79.0342 82.8935 78.8156 82.8935 78.48H54.8935C54.8935 80.7129 55.0827 83.1171 55.6497 85.5266L82.9053 79.1134ZM82.8935 78.48C82.8935 78.0911 82.9102 77.8597 82.92 77.7611C82.9305 77.6559 82.927 77.7655 82.8595 78.0355L55.6955 71.2445C55.0674 73.7567 54.8935 76.2683 54.8935 78.48H82.8935ZM82.9053 71.4334C82.9369 71.5678 82.9319 71.5894 82.92 71.4709C82.9083 71.3542 82.8935 71.1356 82.8935 70.8H54.8935C54.8935 73.0329 55.0827 75.4371 55.6497 77.8466L82.9053 71.4334ZM82.8935 70.8C82.8935 70.4111 82.9102 70.1797 82.92 70.0811C82.9305 69.9759 82.927 70.0855 82.8595 70.3555L55.6955 63.5645C55.0674 66.0767 54.8935 68.5883 54.8935 70.8H82.8935ZM82.9053 63.7534C82.9369 63.8878 82.9319 63.9094 82.92 63.7909C82.9083 63.6742 82.8935 63.4556 82.8935 63.12H54.8935C54.8935 65.3529 55.0827 67.7571 55.6497 70.1666L82.9053 63.7534ZM82.8935 63.12C82.8935 62.7311 82.9102 62.4997 82.92 62.4011C82.9305 62.2959 82.927 62.4055 82.8595 62.6755L55.6955 55.8845C55.0674 58.3967 54.8935 60.9083 54.8935 63.12H82.8935ZM82.9053 56.0734C82.9369 56.2078 82.9319 56.2294 82.92 56.1109C82.9083 55.9942 82.8935 55.7756 82.8935 55.44H54.8935C54.8935 57.6729 55.0827 60.0771 55.6497 62.4866L82.9053 56.0734ZM82.8935 55.44C82.8935 55.0511 82.9102 54.8197 82.92 54.7211C82.9305 54.6159 82.927 54.7255 82.8595 54.9955L55.6955 48.2045C55.0674 50.7167 54.8935 53.2283 54.8935 55.44H82.8935ZM69.2775 65.6H76.9575V37.6H69.2775V65.6ZM63.3755 54.9955C63.308 54.7255 63.3045 54.6159 63.315 54.7211C63.3248 54.8197 63.3415 55.0511 63.3415 55.44H91.3415C91.3415 53.2283 91.1676 50.7167 90.5395 48.2045L63.3755 54.9955ZM63.3415 55.44C63.3415 55.7756 63.3267 55.9942 63.315 56.1109C63.3031 56.2294 63.2981 56.2078 63.3297 56.0734L90.5853 62.4866C91.1523 60.0771 91.3415 57.6729 91.3415 55.44H63.3415ZM63.3755 62.6755C63.308 62.4055 63.3045 62.2959 63.315 62.4011C63.3248 62.4997 63.3415 62.7311 63.3415 63.12H91.3415C91.3415 60.9083 91.1676 58.3967 90.5395 55.8845L63.3755 62.6755ZM63.3415 63.12C63.3415 63.4556 63.3267 63.6742 63.315 63.7909C63.3031 63.9094 63.2981 63.8878 63.3297 63.7534L90.5853 70.1666C91.1523 67.7571 91.3415 65.3529 91.3415 63.12H63.3415ZM63.3755 70.3555C63.308 70.0855 63.3045 69.9759 63.315 70.0811C63.3248 70.1797 63.3415 70.4111 63.3415 70.8H91.3415C91.3415 68.5883 91.1676 66.0767 90.5395 63.5645L63.3755 70.3555ZM63.3415 70.8C63.3415 71.1356 63.3267 71.3542 63.315 71.4709C63.3031 71.5894 63.2981 71.5678 63.3297 71.4334L90.5853 77.8466C91.1523 75.4371 91.3415 73.0329 91.3415 70.8H63.3415ZM76.9575 88.64H79.8375V60.64H76.9575V88.64ZM66.2555 78.0355C66.188 77.7655 66.1845 77.6559 66.195 77.7611C66.2048 77.8597 66.2215 78.0911 66.2215 78.48H94.2215C94.2215 76.2683 94.0476 73.7567 93.4195 71.2445L66.2555 78.0355ZM86.4155 62.6755C86.348 62.4055 86.3445 62.2959 86.355 62.4011C86.3649 62.4997 86.3815 62.7311 86.3815 63.12H114.382C114.382 60.9083 114.208 58.3967 113.579 55.8845L86.4155 62.6755ZM86.3815 63.12C86.3815 63.4556 86.3667 63.6742 86.355 63.7909C86.3431 63.9094 86.3381 63.8878 86.3697 63.7534L113.625 70.1666C114.192 67.7571 114.382 65.3529 114.382 63.12H86.3815ZM86.4155 70.3555C86.348 70.0855 86.3445 69.9759 86.355 70.0811C86.3649 70.1797 86.3815 70.4111 86.3815 70.8H114.382C114.382 68.5883 114.208 66.0767 113.579 63.5645L86.4155 70.3555ZM86.3815 70.8C86.3815 71.1356 86.3667 71.3542 86.355 71.4709C86.3431 71.5894 86.3381 71.5678 86.3697 71.4334L113.625 77.8466C114.192 75.4371 114.382 73.0329 114.382 70.8H86.3815ZM86.4155 78.0355C86.348 77.7655 86.3445 77.6559 86.355 77.7611C86.3649 77.8597 86.3815 78.0911 86.3815 78.48H114.382C114.382 76.2683 114.208 73.7567 113.579 71.2445L86.4155 78.0355ZM86.3815 78.48C86.3815 78.8156 86.3667 79.0342 86.355 79.1509C86.3431 79.2694 86.3381 79.2478 86.3697 79.1134L113.625 85.5266C114.192 83.1171 114.382 80.7129 114.382 78.48H86.3815ZM86.4155 85.7155C86.348 85.4455 86.3445 85.3359 86.355 85.4411C86.3649 85.5397 86.3815 85.7711 86.3815 86.16H114.382C114.382 83.9483 114.208 81.4367 113.579 78.9245L86.4155 85.7155ZM86.3815 86.16C86.3815 86.4956 86.3667 86.7142 86.355 86.8309C86.3431 86.9494 86.3381 86.9278 86.3697 86.7934L113.625 93.2066C114.192 90.7971 114.382 88.3929 114.382 86.16H86.3815ZM99.9975 76H92.3175V104H99.9975V76ZM105.945 86.7935C105.977 86.9278 105.972 86.9494 105.96 86.831C105.948 86.7142 105.934 86.4956 105.934 86.16H77.9335C77.9335 88.3929 78.1227 90.7971 78.6897 93.2065L105.945 86.7935ZM105.934 86.16C105.934 85.7711 105.95 85.5397 105.96 85.441C105.971 85.3359 105.967 85.4455 105.899 85.7155L78.7355 78.9245C78.1074 81.4368 77.9335 83.9483 77.9335 86.16H105.934ZM92.3175 68.32H89.4375V96.32H92.3175V68.32ZM103.065 79.1135C103.097 79.2478 103.092 79.2694 103.08 79.1509C103.068 79.0342 103.054 78.8156 103.054 78.48H75.0535C75.0535 80.7129 75.2427 83.1171 75.8097 85.5265L103.065 79.1135ZM103.054 78.48C103.054 78.0911 103.07 77.8597 103.08 77.761C103.091 77.6559 103.087 77.7655 103.019 78.0355L75.8555 71.2445C75.2274 73.7568 75.0535 76.2683 75.0535 78.48H103.054ZM89.4375 88.64H92.3175V60.64H89.4375V88.64ZM105.945 71.4335C105.977 71.5678 105.972 71.5894 105.96 71.471C105.948 71.3542 105.934 71.1356 105.934 70.8H77.9335C77.9335 73.0329 78.1227 75.4371 78.6897 77.8465L105.945 71.4335ZM105.934 70.8C105.934 70.4111 105.95 70.1797 105.96 70.081C105.971 69.9759 105.967 70.0855 105.899 70.3555L78.7355 63.5645C78.1074 66.0768 77.9335 68.5883 77.9335 70.8H105.934ZM105.945 63.7535C105.977 63.8878 105.972 63.9094 105.96 63.791C105.948 63.6742 105.934 63.4556 105.934 63.12H77.9335C77.9335 65.3529 78.1227 67.7571 78.6897 70.1665L105.945 63.7535ZM105.934 63.12C105.934 62.7311 105.95 62.4997 105.96 62.401C105.971 62.2959 105.967 62.4055 105.899 62.6755L78.7355 55.8845C78.1074 58.3968 77.9335 60.9083 77.9335 63.12H105.934ZM105.945 56.0735C105.977 56.2078 105.972 56.2294 105.96 56.111C105.948 55.9942 105.934 55.7756 105.934 55.44H77.9335C77.9335 57.6729 78.1227 60.0771 78.6897 62.4865L105.945 56.0735ZM105.934 55.44C105.934 55.0511 105.95 54.8197 105.96 54.721C105.971 54.6159 105.967 54.7255 105.899 54.9955L78.7355 48.2045C78.1074 50.7168 77.9335 53.2283 77.9335 55.44H105.934ZM92.3175 65.6H99.9975V37.6H92.3175V65.6ZM86.4155 54.9955C86.348 54.7255 86.3445 54.6159 86.355 54.7211C86.3649 54.8197 86.3815 55.0511 86.3815 55.44H114.382C114.382 53.2283 114.208 50.7167 113.579 48.2045L86.4155 54.9955ZM86.3815 55.44C86.3815 55.7756 86.3667 55.9942 86.355 56.1109C86.3431 56.2294 86.3381 56.2078 86.3697 56.0734L113.625 62.4866C114.192 60.0771 114.382 57.6729 114.382 55.44H86.3815ZM138.435 66.96L124.807 63.7534L124.029 67.06L124.853 70.3555L138.435 66.96ZM138.435 74.64V88.64H149.523L152.063 77.8466L138.435 74.64ZM118.275 74.64V60.64H100.344L104.693 78.0355L118.275 74.64ZM118.275 82.32L104.647 79.1134L100.599 96.32H118.275V82.32ZM134.595 82.32L148.177 78.9245L145.526 68.32H134.595V82.32ZM134.595 90V104H145.683L148.223 93.2065L134.595 90ZM115.395 90L101.767 93.2066L104.307 104H115.395V90ZM115.395 82.32L128.977 85.7155L133.326 68.32H115.395V82.32ZM110.595 82.32L96.9672 85.5266L99.5068 96.32H110.595V82.32ZM110.595 74.64L124.177 78.0355L128.526 60.64H110.595V74.64ZM107.715 74.64L94.0872 77.8466L96.6268 88.64H107.715V74.64ZM107.715 66.96V52.96H96.7841L94.133 63.5645L107.715 66.96ZM110.595 66.96V80.96H128.271L124.223 63.7534L110.595 66.96ZM110.595 59.28V45.28H99.6641L97.013 55.8845L110.595 59.28ZM115.395 59.28V73.28H133.071L129.023 56.0734L115.395 59.28ZM115.395 51.6V37.6H104.464L101.813 48.2045L115.395 51.6ZM134.595 51.6L148.177 48.2045L145.526 37.6H134.595V51.6ZM134.595 59.28L120.967 56.0735L116.919 73.28H134.595V59.28ZM138.435 59.28L152.017 55.8845L149.366 45.28H138.435V59.28ZM130.755 66.96V80.96H148.431L144.383 63.7535L130.755 66.96ZM130.755 59.28L144.337 62.6755L148.686 45.28H130.755V59.28ZM118.275 59.28V45.28H100.344L104.693 62.6755L118.275 59.28ZM118.275 66.96L104.647 63.7534L100.599 80.96H118.275V66.96ZM124.819 63.12C124.819 63.4556 124.804 63.6742 124.792 63.7909C124.781 63.9094 124.776 63.8878 124.807 63.7534L152.063 70.1666C152.63 67.7571 152.819 65.3529 152.819 63.12H124.819ZM124.853 70.3555C124.786 70.0855 124.782 69.9759 124.792 70.0811C124.802 70.1797 124.819 70.4111 124.819 70.8H152.819C152.819 68.5883 152.645 66.0767 152.017 63.5645L124.853 70.3555ZM124.819 70.8C124.819 71.1356 124.804 71.3542 124.792 71.4709C124.781 71.5894 124.776 71.5678 124.807 71.4334L152.063 77.8466C152.63 75.4371 152.819 73.0329 152.819 70.8H124.819ZM138.435 60.64H118.275V88.64H138.435V60.64ZM104.693 78.0355C104.626 77.7655 104.622 77.6559 104.632 77.7611C104.642 77.8597 104.659 78.0911 104.659 78.48H132.659C132.659 76.2683 132.485 73.7567 131.857 71.2445L104.693 78.0355ZM104.659 78.48C104.659 78.8156 104.644 79.0342 104.632 79.1509C104.621 79.2694 104.616 79.2478 104.647 79.1134L131.903 85.5266C132.47 83.1171 132.659 80.7129 132.659 78.48H104.659ZM118.275 96.32H134.595V68.32H118.275V96.32ZM121.013 85.7155C120.946 85.4455 120.942 85.3359 120.952 85.441C120.962 85.5397 120.979 85.7711 120.979 86.16H148.979C148.979 83.9483 148.805 81.4368 148.177 78.9245L121.013 85.7155ZM120.979 86.16C120.979 86.4956 120.964 86.7142 120.952 86.831C120.941 86.9494 120.936 86.9278 120.967 86.7935L148.223 93.2065C148.79 90.7971 148.979 88.3929 148.979 86.16H120.979ZM134.595 76H115.395V104H134.595V76ZM129.023 86.7934C129.054 86.9278 129.049 86.9494 129.038 86.8309C129.026 86.7142 129.011 86.4956 129.011 86.16H101.011C101.011 88.3929 101.2 90.7971 101.767 93.2066L129.023 86.7934ZM129.011 86.16C129.011 85.7711 129.028 85.5397 129.038 85.4411C129.048 85.3359 129.044 85.4455 128.977 85.7155L101.813 78.9245C101.185 81.4367 101.011 83.9483 101.011 86.16H129.011ZM115.395 68.32H110.595V96.32H115.395V68.32ZM124.223 79.1134C124.254 79.2478 124.249 79.2694 124.238 79.1509C124.226 79.0342 124.211 78.8156 124.211 78.48H96.211C96.211 80.7129 96.4002 83.1171 96.9672 85.5266L124.223 79.1134ZM124.211 78.48C124.211 78.0911 124.228 77.8597 124.238 77.7611C124.248 77.6559 124.244 77.7655 124.177 78.0355L97.013 71.2445C96.3849 73.7567 96.211 76.2683 96.211 78.48H124.211ZM110.595 60.64H107.715V88.64H110.595V60.64ZM121.343 71.4334C121.374 71.5678 121.369 71.5894 121.358 71.4709C121.346 71.3542 121.331 71.1356 121.331 70.8H93.331C93.331 73.0329 93.5202 75.4371 94.0872 77.8466L121.343 71.4334ZM121.331 70.8C121.331 70.4111 121.348 70.1797 121.358 70.0811C121.368 69.9759 121.364 70.0855 121.297 70.3555L94.133 63.5645C93.5049 66.0767 93.331 68.5883 93.331 70.8H121.331ZM107.715 80.96H110.595V52.96H107.715V80.96ZM124.223 63.7534C124.254 63.8878 124.249 63.9094 124.238 63.7909C124.226 63.6742 124.211 63.4556 124.211 63.12H96.211C96.211 65.3529 96.4002 67.7571 96.9672 70.1666L124.223 63.7534ZM124.211 63.12C124.211 62.7311 124.228 62.4997 124.238 62.4011C124.248 62.2959 124.244 62.4055 124.177 62.6755L97.013 55.8845C96.3849 58.3967 96.211 60.9083 96.211 63.12H124.211ZM110.595 73.28H115.395V45.28H110.595V73.28ZM129.023 56.0734C129.054 56.2078 129.049 56.2294 129.038 56.1109C129.026 55.9942 129.011 55.7756 129.011 55.44H101.011C101.011 57.6729 101.2 60.0771 101.767 62.4866L129.023 56.0734ZM129.011 55.44C129.011 55.0511 129.028 54.8197 129.038 54.7211C129.048 54.6159 129.044 54.7255 128.977 54.9955L101.813 48.2045C101.185 50.7167 101.011 53.2283 101.011 55.44H129.011ZM115.395 65.6H134.595V37.6H115.395V65.6ZM121.013 54.9955C120.946 54.7255 120.942 54.6159 120.952 54.721C120.962 54.8197 120.979 55.0511 120.979 55.44H148.979C148.979 53.2283 148.805 50.7168 148.177 48.2045L121.013 54.9955ZM120.979 55.44C120.979 55.7756 120.964 55.9942 120.952 56.111C120.941 56.2294 120.936 56.2078 120.967 56.0735L148.223 62.4865C148.79 60.0771 148.979 57.6729 148.979 55.44H120.979ZM134.595 73.28H138.435V45.28H134.595V73.28ZM124.853 62.6755C124.786 62.4055 124.782 62.2959 124.792 62.4011C124.802 62.4997 124.819 62.7311 124.819 63.12H152.819C152.819 60.9083 152.645 58.3967 152.017 55.8845L124.853 62.6755ZM144.383 63.7535C144.414 63.8878 144.409 63.9094 144.398 63.791C144.386 63.6742 144.371 63.4556 144.371 63.12H116.371C116.371 65.3529 116.56 67.7571 117.127 70.1665L144.383 63.7535ZM144.371 63.12C144.371 62.7311 144.388 62.4997 144.398 62.401C144.408 62.2959 144.405 62.4055 144.337 62.6755L117.173 55.8845C116.545 58.3968 116.371 60.9083 116.371 63.12H144.371ZM130.755 45.28H118.275V73.28H130.755V45.28ZM104.693 62.6755C104.626 62.4055 104.622 62.2959 104.632 62.4011C104.642 62.4997 104.659 62.7311 104.659 63.12H132.659C132.659 60.9083 132.485 58.3967 131.857 55.8845L104.693 62.6755ZM104.659 63.12C104.659 63.4556 104.644 63.6742 104.632 63.7909C104.621 63.9094 104.616 63.8878 104.647 63.7534L131.903 70.1666C132.47 67.7571 132.659 65.3529 132.659 63.12H104.659ZM118.275 80.96H130.755V52.96H118.275V80.96ZM174.953 82.32V96.32H186.041L188.58 85.5266L174.953 82.32ZM171.113 82.32V68.32H153.182L157.531 85.7155L171.113 82.32ZM171.113 90V104H182.201L184.74 93.2066L171.113 90ZM149.993 90L136.365 93.2066L138.904 104H149.993V90ZM149.993 82.32V68.32H139.062L136.411 78.9245L149.993 82.32ZM167.273 82.32V96.32H184.949L180.9 79.1134L167.273 82.32ZM167.273 74.64L180.854 78.0355L185.203 60.64H167.273V74.64ZM151.913 74.64L138.285 77.8466L140.824 88.64H151.913V74.64ZM151.913 66.96L165.494 70.3555L169.843 52.96H151.913V66.96ZM148.073 66.96L134.445 70.1666L136.984 80.96H148.073V66.96ZM148.073 59.28V45.28H137.142L134.491 55.8845L148.073 59.28ZM151.913 59.28V73.28H169.589L165.54 56.0734L151.913 59.28ZM151.913 51.6V37.6H140.982L138.331 48.2045L151.913 51.6ZM173.033 51.6L186.615 48.2045L183.963 37.6H173.033V51.6ZM173.033 59.28V73.28H184.121L186.66 62.4865L173.033 59.28ZM155.753 59.28V45.28H137.822L142.171 62.6755L155.753 59.28ZM155.753 66.96L142.125 63.7534L138.076 80.96H155.753V66.96ZM171.113 66.96L184.694 63.5645L182.043 52.96H171.113V66.96ZM171.113 74.64L157.485 71.4334L153.436 88.64H171.113V74.64ZM174.953 74.64L188.534 71.2445L185.883 60.64H174.953V74.64ZM161.337 78.48C161.337 78.8156 161.322 79.0342 161.31 79.1509C161.298 79.2694 161.293 79.2478 161.325 79.1134L188.58 85.5266C189.147 83.1171 189.337 80.7129 189.337 78.48H161.337ZM174.953 68.32H171.113V96.32H174.953V68.32ZM157.531 85.7155C157.463 85.4455 157.459 85.3359 157.47 85.4411C157.48 85.5397 157.497 85.7711 157.497 86.16H185.497C185.497 83.9483 185.323 81.4367 184.694 78.9245L157.531 85.7155ZM157.497 86.16C157.497 86.4956 157.482 86.7142 157.47 86.8309C157.458 86.9494 157.453 86.9278 157.485 86.7934L184.74 93.2066C185.307 90.7971 185.497 88.3929 185.497 86.16H157.497ZM171.113 76H149.993V104H171.113V76ZM163.62 86.7934C163.652 86.9278 163.647 86.9494 163.635 86.8309C163.623 86.7142 163.609 86.4956 163.609 86.16H135.609C135.609 88.3929 135.798 90.7971 136.365 93.2066L163.62 86.7934ZM163.609 86.16C163.609 85.7711 163.625 85.5397 163.635 85.4411C163.646 85.3359 163.642 85.4455 163.574 85.7155L136.411 78.9245C135.782 81.4367 135.609 83.9483 135.609 86.16H163.609ZM149.993 96.32H167.273V68.32H149.993V96.32ZM180.9 79.1134C180.932 79.2478 180.927 79.2694 180.915 79.1509C180.903 79.0342 180.889 78.8156 180.889 78.48H152.889C152.889 80.7129 153.078 83.1171 153.645 85.5266L180.9 79.1134ZM180.889 78.48C180.889 78.0911 180.905 77.8597 180.915 77.7611C180.926 77.6559 180.922 77.7655 180.854 78.0355L153.691 71.2445C153.062 73.7567 152.889 76.2683 152.889 78.48H180.889ZM167.273 60.64H151.913V88.64H167.273V60.64ZM165.54 71.4334C165.572 71.5678 165.567 71.5894 165.555 71.4709C165.543 71.3542 165.529 71.1356 165.529 70.8H137.529C137.529 73.0329 137.718 75.4371 138.285 77.8466L165.54 71.4334ZM165.529 70.8C165.529 70.4111 165.545 70.1797 165.555 70.0811C165.566 69.9759 165.562 70.0855 165.494 70.3555L138.331 63.5645C137.702 66.0767 137.529 68.5883 137.529 70.8H165.529ZM151.913 52.96H148.073V80.96H151.913V52.96ZM161.7 63.7534C161.732 63.8878 161.727 63.9094 161.715 63.7909C161.703 63.6742 161.689 63.4556 161.689 63.12H133.689C133.689 65.3529 133.878 67.7571 134.445 70.1666L161.7 63.7534ZM161.689 63.12C161.689 62.7311 161.705 62.4997 161.715 62.4011C161.726 62.2959 161.722 62.4055 161.654 62.6755L134.491 55.8845C133.862 58.3967 133.689 60.9083 133.689 63.12H161.689ZM148.073 73.28H151.913V45.28H148.073V73.28ZM165.54 56.0734C165.572 56.2078 165.567 56.2294 165.555 56.1109C165.543 55.9942 165.529 55.7756 165.529 55.44H137.529C137.529 57.6729 137.718 60.0771 138.285 62.4866L165.54 56.0734ZM165.529 55.44C165.529 55.0511 165.545 54.8197 165.555 54.7211C165.566 54.6159 165.562 54.7255 165.494 54.9955L138.331 48.2045C137.702 50.7167 137.529 53.2283 137.529 55.44H165.529ZM151.913 65.6H173.033V37.6H151.913V65.6ZM159.451 54.9955C159.383 54.7255 159.379 54.6159 159.39 54.721C159.4 54.8197 159.417 55.0511 159.417 55.44H187.417C187.417 53.2283 187.243 50.7168 186.615 48.2045L159.451 54.9955ZM159.417 55.44C159.417 55.7756 159.402 55.9942 159.39 56.111C159.378 56.2294 159.373 56.2078 159.405 56.0735L186.66 62.4865C187.227 60.0771 187.417 57.6729 187.417 55.44H159.417ZM173.033 45.28H155.753V73.28H173.033V45.28ZM142.171 62.6755C142.103 62.4055 142.099 62.2959 142.11 62.4011C142.12 62.4997 142.137 62.7311 142.137 63.12H170.137C170.137 60.9083 169.963 58.3967 169.334 55.8845L142.171 62.6755ZM142.137 63.12C142.137 63.4556 142.122 63.6742 142.11 63.7909C142.098 63.9094 142.093 63.8878 142.125 63.7534L169.38 70.1666C169.947 67.7571 170.137 65.3529 170.137 63.12H142.137ZM155.753 80.96H171.113V52.96H155.753V80.96ZM157.531 70.3555C157.463 70.0855 157.459 69.9759 157.47 70.0811C157.48 70.1797 157.497 70.4111 157.497 70.8H185.497C185.497 68.5883 185.323 66.0767 184.694 63.5645L157.531 70.3555ZM157.497 70.8C157.497 71.1356 157.482 71.3542 157.47 71.4709C157.458 71.5894 157.453 71.5678 157.485 71.4334L184.74 77.8466C185.307 75.4371 185.497 73.0329 185.497 70.8H157.497ZM171.113 88.64H174.953V60.64H171.113V88.64ZM161.371 78.0355C161.303 77.7655 161.299 77.6559 161.31 77.7611C161.32 77.8597 161.337 78.0911 161.337 78.48H189.337C189.337 76.2683 189.163 73.7567 188.534 71.2445L161.371 78.0355ZM211.47 82.32L225.052 78.9245L222.401 68.32H211.47V82.32ZM211.47 90V104H222.558L225.098 93.2065L211.47 90ZM196.11 90L182.482 93.2066L185.022 104H196.11V90ZM196.11 82.32L209.692 85.7155L214.041 68.32H196.11V82.32ZM192.27 82.32L178.642 85.5266L181.182 96.32H192.27V82.32ZM192.27 74.64L205.852 78.0355L206.676 74.74L205.898 71.4334L192.27 74.64ZM192.27 66.96L205.852 70.3555L206.676 67.06L205.898 63.7534L192.27 66.96ZM192.27 59.28L205.852 62.6755L210.201 45.28H192.27V59.28ZM184.59 59.28L170.962 62.4866L173.502 73.28H184.59V59.28ZM184.59 51.6V37.6H173.659L171.008 48.2045L184.59 51.6ZM192.27 51.6V65.6H209.946L205.898 48.3935L192.27 51.6ZM192.27 43.92L205.852 47.3155L206.676 44.02L205.898 40.7134L192.27 43.92ZM192.27 36.24V22.24H181.339L178.688 32.8445L192.27 36.24ZM199.95 36.24L213.532 32.8445L210.881 22.24H199.95V36.24ZM199.95 43.92L186.322 40.7134L185.544 44.02L186.368 47.3155L199.95 43.92ZM199.95 51.6L186.322 48.3934L182.274 65.6H199.95V51.6ZM211.47 51.6L225.052 48.2045L222.401 37.6H211.47V51.6ZM211.47 59.28V73.28H222.558L225.098 62.4865L211.47 59.28ZM199.95 59.28V45.28H182.019L186.368 62.6755L199.95 59.28ZM199.95 66.96L186.322 63.7534L185.544 67.06L186.368 70.3555L199.95 66.96ZM199.95 74.64L186.322 71.4334L185.544 74.74L186.368 78.0355L199.95 74.64ZM199.95 82.32L186.322 79.1134L182.274 96.32H199.95V82.32ZM197.888 85.7155C197.821 85.4455 197.817 85.3359 197.827 85.441C197.837 85.5397 197.854 85.7711 197.854 86.16H225.854C225.854 83.9483 225.68 81.4368 225.052 78.9245L197.888 85.7155ZM197.854 86.16C197.854 86.4956 197.839 86.7142 197.827 86.831C197.816 86.9494 197.811 86.9278 197.842 86.7935L225.098 93.2065C225.665 90.7971 225.854 88.3929 225.854 86.16H197.854ZM211.47 76H196.11V104H211.47V76ZM209.738 86.7934C209.769 86.9278 209.764 86.9494 209.753 86.8309C209.741 86.7142 209.726 86.4956 209.726 86.16H181.726C181.726 88.3929 181.915 90.7971 182.482 93.2066L209.738 86.7934ZM209.726 86.16C209.726 85.7711 209.743 85.5397 209.753 85.4411C209.763 85.3359 209.759 85.4455 209.692 85.7155L182.528 78.9245C181.9 81.4367 181.726 83.9483 181.726 86.16H209.726ZM196.11 68.32H192.27V96.32H196.11V68.32ZM205.898 79.1134C205.929 79.2478 205.924 79.2694 205.913 79.1509C205.901 79.0342 205.886 78.8156 205.886 78.48H177.886C177.886 80.7129 178.075 83.1171 178.642 85.5266L205.898 79.1134ZM205.886 78.48C205.886 78.0911 205.903 77.8597 205.913 77.7611C205.923 77.6559 205.919 77.7655 205.852 78.0355L178.688 71.2445C178.06 73.7567 177.886 76.2683 177.886 78.48H205.886ZM205.898 71.4334C205.929 71.5678 205.924 71.5894 205.913 71.4709C205.901 71.3542 205.886 71.1356 205.886 70.8H177.886C177.886 73.0329 178.075 75.4371 178.642 77.8466L205.898 71.4334ZM205.886 70.8C205.886 70.4111 205.903 70.1797 205.913 70.0811C205.923 69.9759 205.919 70.0855 205.852 70.3555L178.688 63.5645C178.06 66.0767 177.886 68.5883 177.886 70.8H205.886ZM205.898 63.7534C205.929 63.8878 205.924 63.9094 205.913 63.7909C205.901 63.6742 205.886 63.4556 205.886 63.12H177.886C177.886 65.3529 178.075 67.7571 178.642 70.1666L205.898 63.7534ZM205.886 63.12C205.886 62.7311 205.903 62.4997 205.913 62.4011C205.923 62.2959 205.919 62.4055 205.852 62.6755L178.688 55.8845C178.06 58.3967 177.886 60.9083 177.886 63.12H205.886ZM192.27 45.28H184.59V73.28H192.27V45.28ZM198.218 56.0734C198.249 56.2078 198.244 56.2294 198.233 56.1109C198.221 55.9942 198.206 55.7756 198.206 55.44H170.206C170.206 57.6729 170.395 60.0771 170.962 62.4866L198.218 56.0734ZM198.206 55.44C198.206 55.0511 198.223 54.8197 198.233 54.7211C198.243 54.6159 198.239 54.7255 198.172 54.9955L171.008 48.2045C170.38 50.7167 170.206 53.2283 170.206 55.44H198.206ZM184.59 65.6H192.27V37.6H184.59V65.6ZM205.898 48.3935C205.929 48.5278 205.924 48.5494 205.913 48.4309C205.901 48.3142 205.886 48.0956 205.886 47.76H177.886C177.886 49.9929 178.075 52.3971 178.642 54.8065L205.898 48.3935ZM205.886 47.76C205.886 47.3711 205.903 47.1397 205.913 47.0411C205.923 46.9359 205.919 47.0455 205.852 47.3155L178.688 40.5245C178.06 43.0367 177.886 45.5483 177.886 47.76H205.886ZM205.898 40.7134C205.929 40.8478 205.924 40.8694 205.913 40.7509C205.901 40.6342 205.886 40.4156 205.886 40.08H177.886C177.886 42.3129 178.075 44.7171 178.642 47.1266L205.898 40.7134ZM205.886 40.08C205.886 39.6911 205.903 39.4597 205.913 39.3611C205.923 39.2559 205.919 39.3655 205.852 39.6355L178.688 32.8445C178.06 35.3567 177.886 37.8683 177.886 40.08H205.886ZM192.27 50.24H199.95V22.24H192.27V50.24ZM186.368 39.6355C186.301 39.3655 186.297 39.2559 186.307 39.3611C186.317 39.4597 186.334 39.6911 186.334 40.08H214.334C214.334 37.8683 214.16 35.3567 213.532 32.8445L186.368 39.6355ZM186.334 40.08C186.334 40.4156 186.319 40.6342 186.307 40.7509C186.296 40.8694 186.291 40.8478 186.322 40.7134L213.578 47.1266C214.145 44.7171 214.334 42.3129 214.334 40.08H186.334ZM186.368 47.3155C186.301 47.0455 186.297 46.9359 186.307 47.0411C186.317 47.1397 186.334 47.3711 186.334 47.76H214.334C214.334 45.5483 214.16 43.0367 213.532 40.5245L186.368 47.3155ZM186.334 47.76C186.334 48.0956 186.319 48.3142 186.307 48.4309C186.296 48.5494 186.291 48.5278 186.322 48.3934L213.578 54.8066C214.145 52.3971 214.334 49.9929 214.334 47.76H186.334ZM199.95 65.6H211.47V37.6H199.95V65.6ZM197.888 54.9955C197.821 54.7255 197.817 54.6159 197.827 54.721C197.837 54.8197 197.854 55.0511 197.854 55.44H225.854C225.854 53.2283 225.68 50.7168 225.052 48.2045L197.888 54.9955ZM197.854 55.44C197.854 55.7756 197.839 55.9942 197.827 56.111C197.816 56.2294 197.811 56.2078 197.842 56.0735L225.098 62.4865C225.665 60.0771 225.854 57.6729 225.854 55.44H197.854ZM211.47 45.28H199.95V73.28H211.47V45.28ZM186.368 62.6755C186.301 62.4055 186.297 62.2959 186.307 62.4011C186.317 62.4997 186.334 62.7311 186.334 63.12H214.334C214.334 60.9083 214.16 58.3967 213.532 55.8845L186.368 62.6755ZM186.334 63.12C186.334 63.4556 186.319 63.6742 186.307 63.7909C186.296 63.9094 186.291 63.8878 186.322 63.7534L213.578 70.1666C214.145 67.7571 214.334 65.3529 214.334 63.12H186.334ZM186.368 70.3555C186.301 70.0855 186.297 69.9759 186.307 70.0811C186.317 70.1797 186.334 70.4111 186.334 70.8H214.334C214.334 68.5883 214.16 66.0767 213.532 63.5645L186.368 70.3555ZM186.334 70.8C186.334 71.1356 186.319 71.3542 186.307 71.4709C186.296 71.5894 186.291 71.5678 186.322 71.4334L213.578 77.8466C214.145 75.4371 214.334 73.0329 214.334 70.8H186.334ZM186.368 78.0355C186.301 77.7655 186.297 77.6559 186.307 77.7611C186.317 77.8597 186.334 78.0911 186.334 78.48H214.334C214.334 76.2683 214.16 73.7567 213.532 71.2445L186.368 78.0355ZM186.334 78.48C186.334 78.8156 186.319 79.0342 186.307 79.1509C186.296 79.2694 186.291 79.2478 186.322 79.1134L213.578 85.5266C214.145 83.1171 214.334 80.7129 214.334 78.48H186.334ZM199.95 96.32H211.47V68.32H199.95V96.32ZM292.185 43.92L278.557 40.7134L277.779 44.02L278.603 47.3155L292.185 43.92ZM292.185 51.6L278.557 48.3934L277.779 51.7L278.603 54.9955L292.185 51.6ZM292.185 59.28L278.557 56.0734L277.779 59.38L278.603 62.6755L292.185 59.28ZM292.185 66.96L278.557 63.7534L277.779 67.06L278.603 70.3555L292.185 66.96ZM292.185 74.64L278.557 71.4334L277.779 74.74L278.603 78.0355L292.185 74.64ZM292.185 82.32L278.557 79.1134L277.779 82.42L278.603 85.7155L292.185 82.32ZM292.185 90V104H303.273L305.813 93.2066L292.185 90ZM284.505 90L270.877 93.2065L273.417 104H284.505V90ZM284.505 82.32L298.087 85.7155L298.911 82.42L298.133 79.1135L284.505 82.32ZM284.505 74.64L298.087 78.0355L298.911 74.74L298.133 71.4335L284.505 74.64ZM284.505 66.96L298.087 70.3555L302.436 52.96H284.505V66.96ZM269.145 66.96V52.96H251.214L255.563 70.3555L269.145 66.96ZM269.145 74.64L255.517 71.4334L254.739 74.74L255.563 78.0355L269.145 74.64ZM269.145 82.32L255.517 79.1134L254.739 82.42L255.563 85.7155L269.145 82.32ZM269.145 90V104H280.233L282.773 93.2066L269.145 90ZM261.465 90L247.837 93.2066L250.377 104H261.465V90ZM261.465 82.32L275.047 85.7155L275.871 82.42L275.093 79.1134L261.465 82.32ZM261.465 74.64L275.047 78.0355L275.871 74.74L275.093 71.4334L261.465 74.64ZM261.465 66.96L275.047 70.3555L275.871 67.06L275.093 63.7534L261.465 66.96ZM261.465 59.28L275.047 62.6755L275.871 59.38L275.093 56.0734L261.465 59.28ZM261.465 51.6L275.047 54.9955L275.871 51.7L275.093 48.3935L261.465 51.6ZM261.465 43.92L275.047 47.3155L275.871 44.02L275.093 40.7134L261.465 43.92ZM261.465 36.24V22.24H250.534L247.883 32.8445L261.465 36.24ZM269.145 36.24L282.727 32.8445L280.076 22.24H269.145V36.24ZM269.145 43.92L255.517 40.7134L254.739 44.02L255.563 47.3155L269.145 43.92ZM269.145 51.6L255.517 48.3935L254.739 51.7L255.563 54.9955L269.145 51.6ZM269.145 59.28L255.517 56.0734L251.469 73.28H269.145V59.28ZM284.505 59.28V73.28H302.181L298.133 56.0735L284.505 59.28ZM284.505 51.6L298.087 54.9955L298.911 51.7L298.133 48.3935L284.505 51.6ZM284.505 43.92L298.087 47.3155L298.911 44.02L298.133 40.7135L284.505 43.92ZM284.505 36.24V22.24H273.574L270.923 32.8445L284.505 36.24ZM292.185 36.24L305.767 32.8445L303.116 22.24H292.185V36.24ZM278.603 47.3155C278.536 47.0455 278.532 46.9359 278.542 47.0411C278.552 47.1397 278.569 47.3711 278.569 47.76H306.569C306.569 45.5483 306.395 43.0367 305.767 40.5245L278.603 47.3155ZM278.569 47.76C278.569 48.0956 278.554 48.3142 278.542 48.4309C278.531 48.5494 278.526 48.5278 278.557 48.3934L305.813 54.8066C306.38 52.3971 306.569 49.9929 306.569 47.76H278.569ZM278.603 54.9955C278.536 54.7255 278.532 54.6159 278.542 54.7211C278.552 54.8197 278.569 55.0511 278.569 55.44H306.569C306.569 53.2283 306.395 50.7167 305.767 48.2045L278.603 54.9955ZM278.569 55.44C278.569 55.7756 278.554 55.9942 278.542 56.1109C278.531 56.2294 278.526 56.2078 278.557 56.0734L305.813 62.4866C306.38 60.0771 306.569 57.6729 306.569 55.44H278.569ZM278.603 62.6755C278.536 62.4055 278.532 62.2959 278.542 62.4011C278.552 62.4997 278.569 62.7311 278.569 63.12H306.569C306.569 60.9083 306.395 58.3967 305.767 55.8845L278.603 62.6755ZM278.569 63.12C278.569 63.4556 278.554 63.6742 278.542 63.7909C278.531 63.9094 278.526 63.8878 278.557 63.7534L305.813 70.1666C306.38 67.7571 306.569 65.3529 306.569 63.12H278.569ZM278.603 70.3555C278.536 70.0855 278.532 69.9759 278.542 70.0811C278.552 70.1797 278.569 70.4111 278.569 70.8H306.569C306.569 68.5883 306.395 66.0767 305.767 63.5645L278.603 70.3555ZM278.569 70.8C278.569 71.1356 278.554 71.3542 278.542 71.4709C278.531 71.5894 278.526 71.5678 278.557 71.4334L305.813 77.8466C306.38 75.4371 306.569 73.0329 306.569 70.8H278.569ZM278.603 78.0355C278.536 77.7655 278.532 77.6559 278.542 77.7611C278.552 77.8597 278.569 78.0911 278.569 78.48H306.569C306.569 76.2683 306.395 73.7567 305.767 71.2445L278.603 78.0355ZM278.569 78.48C278.569 78.8156 278.554 79.0342 278.542 79.1509C278.531 79.2694 278.526 79.2478 278.557 79.1134L305.813 85.5266C306.38 83.1171 306.569 80.7129 306.569 78.48H278.569ZM278.603 85.7155C278.536 85.4455 278.532 85.3359 278.542 85.4411C278.552 85.5397 278.569 85.7711 278.569 86.16H306.569C306.569 83.9483 306.395 81.4367 305.767 78.9245L278.603 85.7155ZM278.569 86.16C278.569 86.4956 278.554 86.7142 278.542 86.8309C278.531 86.9494 278.526 86.9278 278.557 86.7934L305.813 93.2066C306.38 90.7971 306.569 88.3929 306.569 86.16H278.569ZM292.185 76H284.505V104H292.185V76ZM298.133 86.7935C298.164 86.9278 298.159 86.9494 298.148 86.831C298.136 86.7142 298.121 86.4956 298.121 86.16H270.121C270.121 88.3929 270.31 90.7971 270.877 93.2065L298.133 86.7935ZM298.121 86.16C298.121 85.7711 298.138 85.5397 298.148 85.441C298.158 85.3359 298.155 85.4455 298.087 85.7155L270.923 78.9245C270.295 81.4368 270.121 83.9483 270.121 86.16H298.121ZM298.133 79.1135C298.164 79.2478 298.159 79.2694 298.148 79.151C298.136 79.0342 298.121 78.8156 298.121 78.48H270.121C270.121 80.7129 270.31 83.1171 270.877 85.5265L298.133 79.1135ZM298.121 78.48C298.121 78.0911 298.138 77.8597 298.148 77.761C298.158 77.6559 298.155 77.7655 298.087 78.0355L270.923 71.2445C270.295 73.7568 270.121 76.2683 270.121 78.48H298.121ZM298.133 71.4335C298.164 71.5678 298.159 71.5894 298.148 71.471C298.136 71.3542 298.121 71.1356 298.121 70.8H270.121C270.121 73.0329 270.31 75.4371 270.877 77.8465L298.133 71.4335ZM298.121 70.8C298.121 70.4111 298.138 70.1797 298.148 70.081C298.158 69.9759 298.155 70.0855 298.087 70.3555L270.923 63.5645C270.295 66.0768 270.121 68.5883 270.121 70.8H298.121ZM284.505 52.96H269.145V80.96H284.505V52.96ZM255.563 70.3555C255.496 70.0855 255.492 69.9759 255.502 70.0811C255.512 70.1797 255.529 70.4111 255.529 70.8H283.529C283.529 68.5883 283.355 66.0767 282.727 63.5645L255.563 70.3555ZM255.529 70.8C255.529 71.1356 255.514 71.3542 255.502 71.4709C255.491 71.5894 255.486 71.5678 255.517 71.4334L282.773 77.8466C283.34 75.4371 283.529 73.0329 283.529 70.8H255.529ZM255.563 78.0355C255.496 77.7655 255.492 77.6559 255.502 77.7611C255.512 77.8597 255.529 78.0911 255.529 78.48H283.529C283.529 76.2683 283.355 73.7567 282.727 71.2445L255.563 78.0355ZM255.529 78.48C255.529 78.8156 255.514 79.0342 255.502 79.1509C255.491 79.2694 255.486 79.2478 255.517 79.1134L282.773 85.5266C283.34 83.1171 283.529 80.7129 283.529 78.48H255.529ZM255.563 85.7155C255.496 85.4455 255.492 85.3359 255.502 85.4411C255.512 85.5397 255.529 85.7711 255.529 86.16H283.529C283.529 83.9483 283.355 81.4367 282.727 78.9245L255.563 85.7155ZM255.529 86.16C255.529 86.4956 255.514 86.7142 255.502 86.8309C255.491 86.9494 255.486 86.9278 255.517 86.7934L282.773 93.2066C283.34 90.7971 283.529 88.3929 283.529 86.16H255.529ZM269.145 76H261.465V104H269.145V76ZM275.093 86.7934C275.124 86.9278 275.119 86.9494 275.108 86.8309C275.096 86.7142 275.081 86.4956 275.081 86.16H247.081C247.081 88.3929 247.27 90.7971 247.837 93.2066L275.093 86.7934ZM275.081 86.16C275.081 85.7711 275.098 85.5397 275.108 85.4411C275.118 85.3359 275.114 85.4455 275.047 85.7155L247.883 78.9245C247.255 81.4367 247.081 83.9483 247.081 86.16H275.081ZM275.093 79.1134C275.124 79.2478 275.119 79.2694 275.108 79.1509C275.096 79.0342 275.081 78.8156 275.081 78.48H247.081C247.081 80.7129 247.27 83.1171 247.837 85.5266L275.093 79.1134ZM275.081 78.48C275.081 78.0911 275.098 77.8597 275.108 77.7611C275.118 77.6559 275.114 77.7655 275.047 78.0355L247.883 71.2445C247.255 73.7567 247.081 76.2683 247.081 78.48H275.081ZM275.093 71.4334C275.124 71.5678 275.119 71.5894 275.108 71.4709C275.096 71.3542 275.081 71.1356 275.081 70.8H247.081C247.081 73.0329 247.27 75.4371 247.837 77.8466L275.093 71.4334ZM275.081 70.8C275.081 70.4111 275.098 70.1797 275.108 70.0811C275.118 69.9759 275.114 70.0855 275.047 70.3555L247.883 63.5645C247.255 66.0767 247.081 68.5883 247.081 70.8H275.081ZM275.093 63.7534C275.124 63.8878 275.119 63.9094 275.108 63.7909C275.096 63.6742 275.081 63.4556 275.081 63.12H247.081C247.081 65.3529 247.27 67.7571 247.837 70.1666L275.093 63.7534ZM275.081 63.12C275.081 62.7311 275.098 62.4997 275.108 62.4011C275.118 62.2959 275.114 62.4055 275.047 62.6755L247.883 55.8845C247.255 58.3967 247.081 60.9083 247.081 63.12H275.081ZM275.093 56.0734C275.124 56.2078 275.119 56.2294 275.108 56.1109C275.096 55.9942 275.081 55.7756 275.081 55.44H247.081C247.081 57.6729 247.27 60.0771 247.837 62.4866L275.093 56.0734ZM275.081 55.44C275.081 55.0511 275.098 54.8197 275.108 54.7211C275.118 54.6159 275.114 54.7255 275.047 54.9955L247.883 48.2045C247.255 50.7167 247.081 53.2283 247.081 55.44H275.081ZM275.093 48.3935C275.124 48.5278 275.119 48.5494 275.108 48.4309C275.096 48.3142 275.081 48.0956 275.081 47.76H247.081C247.081 49.9929 247.27 52.3971 247.837 54.8065L275.093 48.3935ZM275.081 47.76C275.081 47.3711 275.098 47.1397 275.108 47.0411C275.118 46.9359 275.114 47.0455 275.047 47.3155L247.883 40.5245C247.255 43.0367 247.081 45.5483 247.081 47.76H275.081ZM275.093 40.7134C275.124 40.8478 275.119 40.8694 275.108 40.7509C275.096 40.6342 275.081 40.4156 275.081 40.08H247.081C247.081 42.3129 247.27 44.7171 247.837 47.1266L275.093 40.7134ZM275.081 40.08C275.081 39.6911 275.098 39.4597 275.108 39.3611C275.118 39.2559 275.114 39.3655 275.047 39.6355L247.883 32.8445C247.255 35.3567 247.081 37.8683 247.081 40.08H275.081ZM261.465 50.24H269.145V22.24H261.465V50.24ZM255.563 39.6355C255.496 39.3655 255.492 39.2559 255.502 39.3611C255.512 39.4597 255.529 39.6911 255.529 40.08H283.529C283.529 37.8683 283.355 35.3567 282.727 32.8445L255.563 39.6355ZM255.529 40.08C255.529 40.4156 255.514 40.6342 255.502 40.7509C255.491 40.8694 255.486 40.8478 255.517 40.7134L282.773 47.1266C283.34 44.7171 283.529 42.3129 283.529 40.08H255.529ZM255.563 47.3155C255.496 47.0455 255.492 46.9359 255.502 47.0411C255.512 47.1397 255.529 47.3711 255.529 47.76H283.529C283.529 45.5483 283.355 43.0367 282.727 40.5245L255.563 47.3155ZM255.529 47.76C255.529 48.0956 255.514 48.3142 255.502 48.4309C255.491 48.5494 255.486 48.5278 255.517 48.3935L282.773 54.8065C283.34 52.3971 283.529 49.9929 283.529 47.76H255.529ZM255.563 54.9955C255.496 54.7255 255.492 54.6159 255.502 54.7211C255.512 54.8197 255.529 55.0511 255.529 55.44H283.529C283.529 53.2283 283.355 50.7167 282.727 48.2045L255.563 54.9955ZM255.529 55.44C255.529 55.7756 255.514 55.9942 255.502 56.1109C255.491 56.2294 255.486 56.2078 255.517 56.0734L282.773 62.4866C283.34 60.0771 283.529 57.6729 283.529 55.44H255.529ZM269.145 73.28H284.505V45.28H269.145V73.28ZM298.133 56.0735C298.164 56.2078 298.159 56.2294 298.148 56.111C298.136 55.9942 298.121 55.7756 298.121 55.44H270.121C270.121 57.6729 270.31 60.0771 270.877 62.4865L298.133 56.0735ZM298.121 55.44C298.121 55.0511 298.138 54.8197 298.148 54.721C298.158 54.6159 298.155 54.7255 298.087 54.9955L270.923 48.2045C270.295 50.7168 270.121 53.2283 270.121 55.44H298.121ZM298.133 48.3935C298.164 48.5278 298.159 48.5494 298.148 48.431C298.136 48.3142 298.121 48.0956 298.121 47.76H270.121C270.121 49.9929 270.31 52.3971 270.877 54.8065L298.133 48.3935ZM298.121 47.76C298.121 47.3711 298.138 47.1397 298.148 47.041C298.158 46.9359 298.155 47.0455 298.087 47.3155L270.923 40.5245C270.295 43.0368 270.121 45.5483 270.121 47.76H298.121ZM298.133 40.7135C298.164 40.8478 298.159 40.8694 298.148 40.751C298.136 40.6342 298.121 40.4156 298.121 40.08H270.121C270.121 42.3129 270.31 44.7171 270.877 47.1265L298.133 40.7135ZM298.121 40.08C298.121 39.6911 298.138 39.4597 298.148 39.361C298.158 39.2559 298.155 39.3655 298.087 39.6355L270.923 32.8445C270.295 35.3568 270.121 37.8683 270.121 40.08H298.121ZM284.505 50.24H292.185V22.24H284.505V50.24ZM278.603 39.6355C278.536 39.3655 278.532 39.2559 278.542 39.3611C278.552 39.4597 278.569 39.6911 278.569 40.08H306.569C306.569 37.8683 306.395 35.3567 305.767 32.8445L278.603 39.6355ZM278.569 40.08C278.569 40.4156 278.554 40.6342 278.542 40.7509C278.531 40.8694 278.526 40.8478 278.557 40.7134L305.813 47.1266C306.38 44.7171 306.569 42.3129 306.569 40.08H278.569ZM310.463 82.32L296.835 79.1134L292.786 96.32H310.463V82.32ZM320.062 82.32L333.644 78.9245L330.993 68.32H320.062V82.32ZM320.062 90V104H331.151L333.69 93.2066L320.062 90ZM304.703 90L291.075 93.2066L293.614 104H304.703V90ZM304.703 82.32L318.284 85.7155L322.633 68.32H304.703V82.32ZM299.903 82.32L286.275 85.5266L288.814 96.32H299.903V82.32ZM299.903 74.64L313.484 78.0355L314.308 74.74L313.53 71.4334L299.903 74.64ZM299.903 66.96L313.484 70.3555L314.308 67.06L313.53 63.7534L299.903 66.96ZM299.903 59.28L313.484 62.6755L314.308 59.38L313.53 56.0734L299.903 59.28ZM299.903 51.6V37.6H288.972L286.321 48.2045L299.903 51.6ZM307.583 51.6L321.164 48.2045L318.513 37.6H307.583V51.6ZM307.583 59.28L293.955 56.0734L293.177 59.38L294.001 62.6755L307.583 59.28ZM307.583 66.96L293.955 63.7534L293.177 67.06L294.001 70.3555L307.583 66.96ZM307.583 74.64L293.955 71.4334L289.906 88.64H307.583V74.64ZM310.463 74.64L324.044 71.2445L321.393 60.64H310.463V74.64ZM330.623 59.28L316.995 56.0734L316.217 59.38L317.041 62.6755L330.623 59.28ZM330.623 66.96L316.995 63.7534L316.217 67.06L317.041 70.3555L330.623 66.96ZM330.623 74.64L316.995 71.4334L316.217 74.74L317.041 78.0355L330.623 74.64ZM330.623 82.32L316.995 79.1134L316.217 82.42L317.041 85.7155L330.623 82.32ZM330.623 90V104H341.711L344.25 93.2066L330.623 90ZM322.943 90L309.315 93.2065L311.854 104H322.943V90ZM322.943 82.32L336.524 85.7155L340.873 68.32H322.943V82.32ZM320.062 82.32L306.435 85.5265L308.974 96.32H320.062V82.32ZM320.062 74.64V60.64H309.132L306.481 71.2445L320.062 74.64ZM322.943 74.64V88.64H340.619L336.57 71.4335L322.943 74.64ZM322.943 66.96L336.524 70.3555L337.348 67.06L336.57 63.7535L322.943 66.96ZM322.943 59.28L336.524 62.6755L337.348 59.38L336.57 56.0735L322.943 59.28ZM322.943 51.6V37.6H312.012L309.361 48.2045L322.943 51.6ZM330.623 51.6L344.204 48.2045L341.553 37.6H330.623V51.6ZM296.847 78.48C296.847 78.8156 296.832 79.0342 296.82 79.1509C296.808 79.2694 296.803 79.2478 296.835 79.1134L324.09 85.5266C324.657 83.1171 324.847 80.7129 324.847 78.48H296.847ZM310.463 96.32H320.062V68.32H310.463V96.32ZM306.481 85.7155C306.413 85.4455 306.409 85.3359 306.42 85.4411C306.43 85.5397 306.447 85.7711 306.447 86.16H334.447C334.447 83.9483 334.273 81.4367 333.644 78.9245L306.481 85.7155ZM306.447 86.16C306.447 86.4956 306.432 86.7142 306.42 86.8309C306.408 86.9494 306.403 86.9278 306.435 86.7934L333.69 93.2066C334.257 90.7971 334.447 88.3929 334.447 86.16H306.447ZM320.062 76H304.703V104H320.062V76ZM318.33 86.7934C318.362 86.9278 318.357 86.9494 318.345 86.8309C318.333 86.7142 318.319 86.4956 318.319 86.16H290.319C290.319 88.3929 290.508 90.7971 291.075 93.2066L318.33 86.7934ZM318.319 86.16C318.319 85.7711 318.335 85.5397 318.345 85.4411C318.356 85.3359 318.352 85.4455 318.284 85.7155L291.121 78.9245C290.492 81.4367 290.319 83.9483 290.319 86.16H318.319ZM304.703 68.32H299.903V96.32H304.703V68.32ZM313.53 79.1134C313.562 79.2478 313.557 79.2694 313.545 79.1509C313.533 79.0342 313.519 78.8156 313.519 78.48H285.519C285.519 80.7129 285.708 83.1171 286.275 85.5266L313.53 79.1134ZM313.519 78.48C313.519 78.0911 313.535 77.8597 313.545 77.7611C313.556 77.6559 313.552 77.7655 313.484 78.0355L286.321 71.2445C285.692 73.7567 285.519 76.2683 285.519 78.48H313.519ZM313.53 71.4334C313.562 71.5678 313.557 71.5894 313.545 71.4709C313.533 71.3542 313.519 71.1356 313.519 70.8H285.519C285.519 73.0329 285.708 75.4371 286.275 77.8466L313.53 71.4334ZM313.519 70.8C313.519 70.4111 313.535 70.1797 313.545 70.0811C313.556 69.9759 313.552 70.0855 313.484 70.3555L286.321 63.5645C285.692 66.0767 285.519 68.5883 285.519 70.8H313.519ZM313.53 63.7534C313.562 63.8878 313.557 63.9094 313.545 63.7909C313.533 63.6742 313.519 63.4556 313.519 63.12H285.519C285.519 65.3529 285.708 67.7571 286.275 70.1666L313.53 63.7534ZM313.519 63.12C313.519 62.7311 313.535 62.4997 313.545 62.4011C313.556 62.2959 313.552 62.4055 313.484 62.6755L286.321 55.8845C285.692 58.3967 285.519 60.9083 285.519 63.12H313.519ZM313.53 56.0734C313.562 56.2078 313.557 56.2294 313.545 56.1109C313.533 55.9942 313.519 55.7756 313.519 55.44H285.519C285.519 57.6729 285.708 60.0771 286.275 62.4866L313.53 56.0734ZM313.519 55.44C313.519 55.0511 313.535 54.8197 313.545 54.7211C313.556 54.6159 313.552 54.7255 313.484 54.9955L286.321 48.2045C285.692 50.7167 285.519 53.2283 285.519 55.44H313.519ZM299.903 65.6H307.583V37.6H299.903V65.6ZM294.001 54.9955C293.933 54.7255 293.929 54.6159 293.94 54.7211C293.95 54.8197 293.967 55.0511 293.967 55.44H321.967C321.967 53.2283 321.793 50.7167 321.164 48.2045L294.001 54.9955ZM293.967 55.44C293.967 55.7756 293.952 55.9942 293.94 56.1109C293.928 56.2294 293.923 56.2078 293.955 56.0734L321.21 62.4866C321.777 60.0771 321.967 57.6729 321.967 55.44H293.967ZM294.001 62.6755C293.933 62.4055 293.929 62.2959 293.94 62.4011C293.95 62.4997 293.967 62.7311 293.967 63.12H321.967C321.967 60.9083 321.793 58.3967 321.164 55.8845L294.001 62.6755ZM293.967 63.12C293.967 63.4556 293.952 63.6742 293.94 63.7909C293.928 63.9094 293.923 63.8878 293.955 63.7534L321.21 70.1666C321.777 67.7571 321.967 65.3529 321.967 63.12H293.967ZM294.001 70.3555C293.933 70.0855 293.929 69.9759 293.94 70.0811C293.95 70.1797 293.967 70.4111 293.967 70.8H321.967C321.967 68.5883 321.793 66.0767 321.164 63.5645L294.001 70.3555ZM293.967 70.8C293.967 71.1356 293.952 71.3542 293.94 71.4709C293.928 71.5894 293.923 71.5678 293.955 71.4334L321.21 77.8466C321.777 75.4371 321.967 73.0329 321.967 70.8H293.967ZM307.583 88.64H310.463V60.64H307.583V88.64ZM296.881 78.0355C296.813 77.7655 296.809 77.6559 296.82 77.7611C296.83 77.8597 296.847 78.0911 296.847 78.48H324.847C324.847 76.2683 324.673 73.7567 324.044 71.2445L296.881 78.0355ZM317.041 62.6755C316.973 62.4055 316.969 62.2959 316.98 62.4011C316.99 62.4997 317.007 62.7311 317.007 63.12H345.007C345.007 60.9083 344.833 58.3967 344.204 55.8845L317.041 62.6755ZM317.007 63.12C317.007 63.4556 316.992 63.6742 316.98 63.7909C316.968 63.9094 316.963 63.8878 316.995 63.7534L344.25 70.1666C344.817 67.7571 345.007 65.3529 345.007 63.12H317.007ZM317.041 70.3555C316.973 70.0855 316.969 69.9759 316.98 70.0811C316.99 70.1797 317.007 70.4111 317.007 70.8H345.007C345.007 68.5883 344.833 66.0767 344.204 63.5645L317.041 70.3555ZM317.007 70.8C317.007 71.1356 316.992 71.3542 316.98 71.4709C316.968 71.5894 316.963 71.5678 316.995 71.4334L344.25 77.8466C344.817 75.4371 345.007 73.0329 345.007 70.8H317.007ZM317.041 78.0355C316.973 77.7655 316.969 77.6559 316.98 77.7611C316.99 77.8597 317.007 78.0911 317.007 78.48H345.007C345.007 76.2683 344.833 73.7567 344.204 71.2445L317.041 78.0355ZM317.007 78.48C317.007 78.8156 316.992 79.0342 316.98 79.1509C316.968 79.2694 316.963 79.2478 316.995 79.1134L344.25 85.5266C344.817 83.1171 345.007 80.7129 345.007 78.48H317.007ZM317.041 85.7155C316.973 85.4455 316.969 85.3359 316.98 85.4411C316.99 85.5397 317.007 85.7711 317.007 86.16H345.007C345.007 83.9483 344.833 81.4367 344.204 78.9245L317.041 85.7155ZM317.007 86.16C317.007 86.4956 316.992 86.7142 316.98 86.8309C316.968 86.9494 316.963 86.9278 316.995 86.7934L344.25 93.2066C344.817 90.7971 345.007 88.3929 345.007 86.16H317.007ZM330.623 76H322.943V104H330.623V76ZM336.57 86.7935C336.602 86.9278 336.597 86.9494 336.585 86.831C336.573 86.7142 336.559 86.4956 336.559 86.16H308.559C308.559 88.3929 308.748 90.7971 309.315 93.2065L336.57 86.7935ZM336.559 86.16C336.559 85.7711 336.575 85.5397 336.585 85.441C336.596 85.3359 336.592 85.4455 336.524 85.7155L309.361 78.9245C308.732 81.4368 308.559 83.9483 308.559 86.16H336.559ZM322.943 68.32H320.062V96.32H322.943V68.32ZM333.69 79.1135C333.722 79.2478 333.717 79.2694 333.705 79.1509C333.693 79.0342 333.679 78.8156 333.679 78.48H305.679C305.679 80.7129 305.868 83.1171 306.435 85.5265L333.69 79.1135ZM333.679 78.48C333.679 78.0911 333.695 77.8597 333.705 77.761C333.716 77.6559 333.712 77.7655 333.644 78.0355L306.481 71.2445C305.852 73.7568 305.679 76.2683 305.679 78.48H333.679ZM320.062 88.64H322.943V60.64H320.062V88.64ZM336.57 71.4335C336.602 71.5678 336.597 71.5894 336.585 71.471C336.573 71.3542 336.559 71.1356 336.559 70.8H308.559C308.559 73.0329 308.748 75.4371 309.315 77.8465L336.57 71.4335ZM336.559 70.8C336.559 70.4111 336.575 70.1797 336.585 70.081C336.596 69.9759 336.592 70.0855 336.524 70.3555L309.361 63.5645C308.732 66.0768 308.559 68.5883 308.559 70.8H336.559ZM336.57 63.7535C336.602 63.8878 336.597 63.9094 336.585 63.791C336.573 63.6742 336.559 63.4556 336.559 63.12H308.559C308.559 65.3529 308.748 67.7571 309.315 70.1665L336.57 63.7535ZM336.559 63.12C336.559 62.7311 336.575 62.4997 336.585 62.401C336.596 62.2959 336.592 62.4055 336.524 62.6755L309.361 55.8845C308.732 58.3968 308.559 60.9083 308.559 63.12H336.559ZM336.57 56.0735C336.602 56.2078 336.597 56.2294 336.585 56.111C336.573 55.9942 336.559 55.7756 336.559 55.44H308.559C308.559 57.6729 308.748 60.0771 309.315 62.4865L336.57 56.0735ZM336.559 55.44C336.559 55.0511 336.575 54.8197 336.585 54.721C336.596 54.6159 336.592 54.7255 336.524 54.9955L309.361 48.2045C308.732 50.7168 308.559 53.2283 308.559 55.44H336.559ZM322.943 65.6H330.623V37.6H322.943V65.6ZM317.041 54.9955C316.973 54.7255 316.969 54.6159 316.98 54.7211C316.99 54.8197 317.007 55.0511 317.007 55.44H345.007C345.007 53.2283 344.833 50.7167 344.204 48.2045L317.041 54.9955ZM317.007 55.44C317.007 55.7756 316.992 55.9942 316.98 56.1109C316.968 56.2294 316.963 56.2078 316.995 56.0734L344.25 62.4866C344.817 60.0771 345.007 57.6729 345.007 55.44H317.007ZM345.06 59.28L331.432 56.0734L327.384 73.28H345.06V59.28ZM348.9 59.28L362.482 55.8845L359.831 45.28H348.9V59.28ZM348.9 66.96V80.96H359.988L362.528 70.1666L348.9 66.96ZM346.02 66.96V52.96H328.089L332.438 70.3555L346.02 66.96ZM346.02 74.64L332.392 71.4334L331.614 74.74L332.438 78.0355L346.02 74.64ZM346.02 82.32L332.392 79.1134L331.614 82.42L332.438 85.7155L346.02 82.32ZM346.02 90V104H357.108L359.648 93.2066L346.02 90ZM338.34 90L324.712 93.2066L327.252 104H338.34V90ZM338.34 82.32L351.922 85.7155L352.746 82.42L351.968 79.1134L338.34 82.32ZM338.34 74.64L351.922 78.0355L352.746 74.74L351.968 71.4334L338.34 74.64ZM338.34 66.96L351.922 70.3555L352.746 67.06L351.968 63.7534L338.34 66.96ZM338.34 59.28L351.922 62.6755L352.746 59.38L351.968 56.0734L338.34 59.28ZM338.34 51.6V37.6H327.409L324.758 48.2045L338.34 51.6ZM345.06 51.6L358.642 48.2045L355.991 37.6H345.06V51.6ZM369.06 66.96L355.432 63.7534L354.654 67.06L355.478 70.3555L369.06 66.96ZM369.06 74.64L355.432 71.4334L354.654 74.74L355.478 78.0355L369.06 74.64ZM369.06 82.32L355.432 79.1134L354.654 82.42L355.478 85.7155L369.06 82.32ZM369.06 90V104H380.148L382.688 93.2066L369.06 90ZM361.38 90L347.752 93.2065L350.292 104H361.38V90ZM361.38 82.32L374.962 85.7155L375.786 82.42L375.008 79.1135L361.38 82.32ZM361.38 74.64L374.962 78.0355L375.786 74.74L375.008 71.4335L361.38 74.64ZM361.38 66.96L374.962 70.3555L375.786 67.06L375.008 63.7535L361.38 66.96ZM361.38 59.28L374.962 62.6755L379.311 45.28H361.38V59.28ZM348.9 59.28L335.272 62.4865L337.812 73.28H348.9V59.28ZM348.9 51.6V37.6H337.969L335.318 48.2045L348.9 51.6ZM364.26 51.6L377.842 48.2045L375.191 37.6H364.26V51.6ZM364.26 59.28L350.632 56.0734L346.584 73.28H364.26V59.28ZM369.06 59.28L382.642 55.8845L379.991 45.28H369.06V59.28ZM331.444 55.44C331.444 55.7756 331.429 55.9942 331.417 56.1109C331.406 56.2294 331.401 56.2078 331.432 56.0734L358.688 62.4866C359.255 60.0771 359.444 57.6729 359.444 55.44H331.444ZM345.06 73.28H348.9V45.28H345.06V73.28ZM335.318 62.6755C335.251 62.4055 335.247 62.2959 335.257 62.4011C335.267 62.4997 335.284 62.7311 335.284 63.12H363.284C363.284 60.9083 363.11 58.3967 362.482 55.8845L335.318 62.6755ZM335.284 63.12C335.284 63.4556 335.269 63.6742 335.257 63.7909C335.246 63.9094 335.241 63.8878 335.272 63.7534L362.528 70.1666C363.095 67.7571 363.284 65.3529 363.284 63.12H335.284ZM348.9 52.96H346.02V80.96H348.9V52.96ZM332.438 70.3555C332.371 70.0855 332.367 69.9759 332.377 70.0811C332.387 70.1797 332.404 70.4111 332.404 70.8H360.404C360.404 68.5883 360.23 66.0767 359.602 63.5645L332.438 70.3555ZM332.404 70.8C332.404 71.1356 332.389 71.3542 332.377 71.4709C332.366 71.5894 332.361 71.5678 332.392 71.4334L359.648 77.8466C360.215 75.4371 360.404 73.0329 360.404 70.8H332.404ZM332.438 78.0355C332.371 77.7655 332.367 77.6559 332.377 77.7611C332.387 77.8597 332.404 78.0911 332.404 78.48H360.404C360.404 76.2683 360.23 73.7567 359.602 71.2445L332.438 78.0355ZM332.404 78.48C332.404 78.8156 332.389 79.0342 332.377 79.1509C332.366 79.2694 332.361 79.2478 332.392 79.1134L359.648 85.5266C360.215 83.1171 360.404 80.7129 360.404 78.48H332.404ZM332.438 85.7155C332.371 85.4455 332.367 85.3359 332.377 85.4411C332.387 85.5397 332.404 85.7711 332.404 86.16H360.404C360.404 83.9483 360.23 81.4367 359.602 78.9245L332.438 85.7155ZM332.404 86.16C332.404 86.4956 332.389 86.7142 332.377 86.8309C332.366 86.9494 332.361 86.9278 332.392 86.7934L359.648 93.2066C360.215 90.7971 360.404 88.3929 360.404 86.16H332.404ZM346.02 76H338.34V104H346.02V76ZM351.968 86.7934C351.999 86.9278 351.994 86.9494 351.983 86.8309C351.971 86.7142 351.956 86.4956 351.956 86.16H323.956C323.956 88.3929 324.145 90.7971 324.712 93.2066L351.968 86.7934ZM351.956 86.16C351.956 85.7711 351.973 85.5397 351.983 85.4411C351.993 85.3359 351.989 85.4455 351.922 85.7155L324.758 78.9245C324.13 81.4367 323.956 83.9483 323.956 86.16H351.956ZM351.968 79.1134C351.999 79.2478 351.994 79.2694 351.983 79.1509C351.971 79.0342 351.956 78.8156 351.956 78.48H323.956C323.956 80.7129 324.145 83.1171 324.712 85.5266L351.968 79.1134ZM351.956 78.48C351.956 78.0911 351.973 77.8597 351.983 77.7611C351.993 77.6559 351.989 77.7655 351.922 78.0355L324.758 71.2445C324.13 73.7567 323.956 76.2683 323.956 78.48H351.956ZM351.968 71.4334C351.999 71.5678 351.994 71.5894 351.983 71.4709C351.971 71.3542 351.956 71.1356 351.956 70.8H323.956C323.956 73.0329 324.145 75.4371 324.712 77.8466L351.968 71.4334ZM351.956 70.8C351.956 70.4111 351.973 70.1797 351.983 70.0811C351.993 69.9759 351.989 70.0855 351.922 70.3555L324.758 63.5645C324.13 66.0767 323.956 68.5883 323.956 70.8H351.956ZM351.968 63.7534C351.999 63.8878 351.994 63.9094 351.983 63.7909C351.971 63.6742 351.956 63.4556 351.956 63.12H323.956C323.956 65.3529 324.145 67.7571 324.712 70.1666L351.968 63.7534ZM351.956 63.12C351.956 62.7311 351.973 62.4997 351.983 62.4011C351.993 62.2959 351.989 62.4055 351.922 62.6755L324.758 55.8845C324.13 58.3967 323.956 60.9083 323.956 63.12H351.956ZM351.968 56.0734C351.999 56.2078 351.994 56.2294 351.983 56.1109C351.971 55.9942 351.956 55.7756 351.956 55.44H323.956C323.956 57.6729 324.145 60.0771 324.712 62.4866L351.968 56.0734ZM351.956 55.44C351.956 55.0511 351.973 54.8197 351.983 54.7211C351.993 54.6159 351.989 54.7255 351.922 54.9955L324.758 48.2045C324.13 50.7167 323.956 53.2283 323.956 55.44H351.956ZM338.34 65.6H345.06V37.6H338.34V65.6ZM331.478 54.9955C331.411 54.7255 331.407 54.6159 331.417 54.7211C331.427 54.8197 331.444 55.0511 331.444 55.44H359.444C359.444 53.2283 359.27 50.7167 358.642 48.2045L331.478 54.9955ZM355.478 70.3555C355.411 70.0855 355.407 69.9759 355.417 70.0811C355.427 70.1797 355.444 70.4111 355.444 70.8H383.444C383.444 68.5883 383.27 66.0767 382.642 63.5645L355.478 70.3555ZM355.444 70.8C355.444 71.1356 355.429 71.3542 355.417 71.4709C355.406 71.5894 355.401 71.5678 355.432 71.4334L382.688 77.8466C383.255 75.4371 383.444 73.0329 383.444 70.8H355.444ZM355.478 78.0355C355.411 77.7655 355.407 77.6559 355.417 77.7611C355.427 77.8597 355.444 78.0911 355.444 78.48H383.444C383.444 76.2683 383.27 73.7567 382.642 71.2445L355.478 78.0355ZM355.444 78.48C355.444 78.8156 355.429 79.0342 355.417 79.1509C355.406 79.2694 355.401 79.2478 355.432 79.1134L382.688 85.5266C383.255 83.1171 383.444 80.7129 383.444 78.48H355.444ZM355.478 85.7155C355.411 85.4455 355.407 85.3359 355.417 85.4411C355.427 85.5397 355.444 85.7711 355.444 86.16H383.444C383.444 83.9483 383.27 81.4367 382.642 78.9245L355.478 85.7155ZM355.444 86.16C355.444 86.4956 355.429 86.7142 355.417 86.8309C355.406 86.9494 355.401 86.9278 355.432 86.7934L382.688 93.2066C383.255 90.7971 383.444 88.3929 383.444 86.16H355.444ZM369.06 76H361.38V104H369.06V76ZM375.008 86.7935C375.039 86.9278 375.034 86.9494 375.023 86.831C375.011 86.7142 374.996 86.4956 374.996 86.16H346.996C346.996 88.3929 347.185 90.7971 347.752 93.2065L375.008 86.7935ZM374.996 86.16C374.996 85.7711 375.013 85.5397 375.023 85.441C375.033 85.3359 375.03 85.4455 374.962 85.7155L347.798 78.9245C347.17 81.4368 346.996 83.9483 346.996 86.16H374.996ZM375.008 79.1135C375.039 79.2478 375.034 79.2694 375.023 79.151C375.011 79.0342 374.996 78.8156 374.996 78.48H346.996C346.996 80.7129 347.185 83.1171 347.752 85.5265L375.008 79.1135ZM374.996 78.48C374.996 78.0911 375.013 77.8597 375.023 77.761C375.033 77.6559 375.03 77.7655 374.962 78.0355L347.798 71.2445C347.17 73.7568 346.996 76.2683 346.996 78.48H374.996ZM375.008 71.4335C375.039 71.5678 375.034 71.5894 375.023 71.471C375.011 71.3542 374.996 71.1356 374.996 70.8H346.996C346.996 73.0329 347.185 75.4371 347.752 77.8465L375.008 71.4335ZM374.996 70.8C374.996 70.4111 375.013 70.1797 375.023 70.081C375.033 69.9759 375.03 70.0855 374.962 70.3555L347.798 63.5645C347.17 66.0768 346.996 68.5883 346.996 70.8H374.996ZM375.008 63.7535C375.039 63.8878 375.034 63.9094 375.023 63.791C375.011 63.6742 374.996 63.4556 374.996 63.12H346.996C346.996 65.3529 347.185 67.7571 347.752 70.1665L375.008 63.7535ZM374.996 63.12C374.996 62.7311 375.013 62.4997 375.023 62.401C375.033 62.2959 375.03 62.4055 374.962 62.6755L347.798 55.8845C347.17 58.3968 346.996 60.9083 346.996 63.12H374.996ZM361.38 45.28H348.9V73.28H361.38V45.28ZM362.528 56.0735C362.559 56.2078 362.554 56.2294 362.543 56.1109C362.531 55.9942 362.516 55.7756 362.516 55.44H334.516C334.516 57.6729 334.705 60.0771 335.272 62.4865L362.528 56.0735ZM362.516 55.44C362.516 55.0511 362.533 54.8197 362.543 54.721C362.553 54.6159 362.549 54.7255 362.482 54.9955L335.318 48.2045C334.69 50.7168 334.516 53.2283 334.516 55.44H362.516ZM348.9 65.6H364.26V37.6H348.9V65.6ZM350.678 54.9955C350.611 54.7255 350.607 54.6159 350.617 54.7211C350.627 54.8197 350.644 55.0511 350.644 55.44H378.644C378.644 53.2283 378.47 50.7167 377.842 48.2045L350.678 54.9955ZM350.644 55.44C350.644 55.7756 350.629 55.9942 350.617 56.1109C350.606 56.2294 350.601 56.2078 350.632 56.0734L377.888 62.4866C378.455 60.0771 378.644 57.6729 378.644 55.44H350.644ZM364.26 73.28H369.06V45.28H364.26V73.28ZM355.478 62.6755C355.411 62.4055 355.407 62.2959 355.417 62.4011C355.427 62.4997 355.444 62.7311 355.444 63.12H383.444C383.444 60.9083 383.27 58.3967 382.642 55.8845L355.478 62.6755ZM355.444 63.12C355.444 63.4556 355.429 63.6742 355.417 63.7909C355.406 63.9094 355.401 63.8878 355.432 63.7534L382.688 70.1666C383.255 67.7571 383.444 65.3529 383.444 63.12H355.444ZM403.658 82.32L417.24 78.9245L414.588 68.32H403.658V82.32ZM403.658 90V104H414.746L417.285 93.2065L403.658 90ZM388.298 90L374.67 93.2066L377.209 104H388.298V90ZM388.298 82.32L401.879 85.7155L406.228 68.32H388.298V82.32ZM384.458 82.32L370.83 85.5266L373.369 96.32H384.458V82.32ZM384.458 74.64L398.039 78.0355L398.863 74.74L398.085 71.4334L384.458 74.64ZM384.458 66.96L398.039 70.3555L398.863 67.06L398.085 63.7534L384.458 66.96ZM384.458 59.28L398.039 62.6755L402.388 45.28H384.458V59.28ZM376.778 59.28L363.15 62.4866L365.689 73.28H376.778V59.28ZM376.778 51.6V37.6H365.847L363.196 48.2045L376.778 51.6ZM384.458 51.6V65.6H402.134L398.085 48.3935L384.458 51.6ZM384.458 43.92L398.039 47.3155L398.863 44.02L398.085 40.7134L384.458 43.92ZM384.458 36.24V22.24H373.527L370.876 32.8445L384.458 36.24ZM392.138 36.24L405.719 32.8445L403.068 22.24H392.138V36.24ZM392.138 43.92L378.51 40.7134L377.732 44.02L378.556 47.3155L392.138 43.92ZM392.138 51.6L378.51 48.3934L374.461 65.6H392.138V51.6ZM403.658 51.6L417.24 48.2045L414.588 37.6H403.658V51.6ZM403.658 59.28V73.28H414.746L417.285 62.4865L403.658 59.28ZM392.138 59.28V45.28H374.207L378.556 62.6755L392.138 59.28ZM392.138 66.96L378.51 63.7534L377.732 67.06L378.556 70.3555L392.138 66.96ZM392.138 74.64L378.51 71.4334L377.732 74.74L378.556 78.0355L392.138 74.64ZM392.138 82.32L378.51 79.1134L374.461 96.32H392.138V82.32ZM390.076 85.7155C390.008 85.4455 390.004 85.3359 390.015 85.441C390.025 85.5397 390.042 85.7711 390.042 86.16H418.042C418.042 83.9483 417.868 81.4368 417.24 78.9245L390.076 85.7155ZM390.042 86.16C390.042 86.4956 390.027 86.7142 390.015 86.831C390.003 86.9494 389.998 86.9278 390.03 86.7935L417.285 93.2065C417.852 90.7971 418.042 88.3929 418.042 86.16H390.042ZM403.658 76H388.298V104H403.658V76ZM401.925 86.7934C401.957 86.9278 401.952 86.9494 401.94 86.8309C401.928 86.7142 401.914 86.4956 401.914 86.16H373.914C373.914 88.3929 374.103 90.7971 374.67 93.2066L401.925 86.7934ZM401.914 86.16C401.914 85.7711 401.93 85.5397 401.94 85.4411C401.951 85.3359 401.947 85.4455 401.879 85.7155L374.716 78.9245C374.087 81.4367 373.914 83.9483 373.914 86.16H401.914ZM388.298 68.32H384.458V96.32H388.298V68.32ZM398.085 79.1134C398.117 79.2478 398.112 79.2694 398.1 79.1509C398.088 79.0342 398.074 78.8156 398.074 78.48H370.074C370.074 80.7129 370.263 83.1171 370.83 85.5266L398.085 79.1134ZM398.074 78.48C398.074 78.0911 398.09 77.8597 398.1 77.7611C398.111 77.6559 398.107 77.7655 398.039 78.0355L370.876 71.2445C370.247 73.7567 370.074 76.2683 370.074 78.48H398.074ZM398.085 71.4334C398.117 71.5678 398.112 71.5894 398.1 71.4709C398.088 71.3542 398.074 71.1356 398.074 70.8H370.074C370.074 73.0329 370.263 75.4371 370.83 77.8466L398.085 71.4334ZM398.074 70.8C398.074 70.4111 398.09 70.1797 398.1 70.0811C398.111 69.9759 398.107 70.0855 398.039 70.3555L370.876 63.5645C370.247 66.0767 370.074 68.5883 370.074 70.8H398.074ZM398.085 63.7534C398.117 63.8878 398.112 63.9094 398.1 63.7909C398.088 63.6742 398.074 63.4556 398.074 63.12H370.074C370.074 65.3529 370.263 67.7571 370.83 70.1666L398.085 63.7534ZM398.074 63.12C398.074 62.7311 398.09 62.4997 398.1 62.4011C398.111 62.2959 398.107 62.4055 398.039 62.6755L370.876 55.8845C370.247 58.3967 370.074 60.9083 370.074 63.12H398.074ZM384.458 45.28H376.778V73.28H384.458V45.28ZM390.405 56.0734C390.437 56.2078 390.432 56.2294 390.42 56.1109C390.408 55.9942 390.394 55.7756 390.394 55.44H362.394C362.394 57.6729 362.583 60.0771 363.15 62.4866L390.405 56.0734ZM390.394 55.44C390.394 55.0511 390.41 54.8197 390.42 54.7211C390.431 54.6159 390.427 54.7255 390.359 54.9955L363.196 48.2045C362.567 50.7167 362.394 53.2283 362.394 55.44H390.394ZM376.778 65.6H384.458V37.6H376.778V65.6ZM398.085 48.3935C398.117 48.5278 398.112 48.5494 398.1 48.4309C398.088 48.3142 398.074 48.0956 398.074 47.76H370.074C370.074 49.9929 370.263 52.3971 370.83 54.8065L398.085 48.3935ZM398.074 47.76C398.074 47.3711 398.09 47.1397 398.1 47.0411C398.111 46.9359 398.107 47.0455 398.039 47.3155L370.876 40.5245C370.247 43.0367 370.074 45.5483 370.074 47.76H398.074ZM398.085 40.7134C398.117 40.8478 398.112 40.8694 398.1 40.7509C398.088 40.6342 398.074 40.4156 398.074 40.08H370.074C370.074 42.3129 370.263 44.7171 370.83 47.1266L398.085 40.7134ZM398.074 40.08C398.074 39.6911 398.09 39.4597 398.1 39.3611C398.111 39.2559 398.107 39.3655 398.039 39.6355L370.876 32.8445C370.247 35.3567 370.074 37.8683 370.074 40.08H398.074ZM384.458 50.24H392.138V22.24H384.458V50.24ZM378.556 39.6355C378.488 39.3655 378.484 39.2559 378.495 39.3611C378.505 39.4597 378.522 39.6911 378.522 40.08H406.522C406.522 37.8683 406.348 35.3567 405.719 32.8445L378.556 39.6355ZM378.522 40.08C378.522 40.4156 378.507 40.6342 378.495 40.7509C378.483 40.8694 378.478 40.8478 378.51 40.7134L405.765 47.1266C406.332 44.7171 406.522 42.3129 406.522 40.08H378.522ZM378.556 47.3155C378.488 47.0455 378.484 46.9359 378.495 47.0411C378.505 47.1397 378.522 47.3711 378.522 47.76H406.522C406.522 45.5483 406.348 43.0367 405.719 40.5245L378.556 47.3155ZM378.522 47.76C378.522 48.0956 378.507 48.3142 378.495 48.4309C378.483 48.5494 378.478 48.5278 378.51 48.3934L405.765 54.8066C406.332 52.3971 406.522 49.9929 406.522 47.76H378.522ZM392.138 65.6H403.658V37.6H392.138V65.6ZM390.076 54.9955C390.008 54.7255 390.004 54.6159 390.015 54.721C390.025 54.8197 390.042 55.0511 390.042 55.44H418.042C418.042 53.2283 417.868 50.7168 417.24 48.2045L390.076 54.9955ZM390.042 55.44C390.042 55.7756 390.027 55.9942 390.015 56.111C390.003 56.2294 389.998 56.2078 390.03 56.0735L417.285 62.4865C417.852 60.0771 418.042 57.6729 418.042 55.44H390.042ZM403.658 45.28H392.138V73.28H403.658V45.28ZM378.556 62.6755C378.488 62.4055 378.484 62.2959 378.495 62.4011C378.505 62.4997 378.522 62.7311 378.522 63.12H406.522C406.522 60.9083 406.348 58.3967 405.719 55.8845L378.556 62.6755ZM378.522 63.12C378.522 63.4556 378.507 63.6742 378.495 63.7909C378.483 63.9094 378.478 63.8878 378.51 63.7534L405.765 70.1666C406.332 67.7571 406.522 65.3529 406.522 63.12H378.522ZM378.556 70.3555C378.488 70.0855 378.484 69.9759 378.495 70.0811C378.505 70.1797 378.522 70.4111 378.522 70.8H406.522C406.522 68.5883 406.348 66.0767 405.719 63.5645L378.556 70.3555ZM378.522 70.8C378.522 71.1356 378.507 71.3542 378.495 71.4709C378.483 71.5894 378.478 71.5678 378.51 71.4334L405.765 77.8466C406.332 75.4371 406.522 73.0329 406.522 70.8H378.522ZM378.556 78.0355C378.488 77.7655 378.484 77.6559 378.495 77.7611C378.505 77.8597 378.522 78.0911 378.522 78.48H406.522C406.522 76.2683 406.348 73.7567 405.719 71.2445L378.556 78.0355ZM378.522 78.48C378.522 78.8156 378.507 79.0342 378.495 79.1509C378.483 79.2694 378.478 79.2478 378.51 79.1134L405.765 85.5266C406.332 83.1171 406.522 80.7129 406.522 78.48H378.522ZM392.138 96.32H403.658V68.32H392.138V96.32Z" fill="#2F7B15"/>
</svg>
